<svg width="100" height="100" viewBox="0 0 100 100" fill="none" xmlns="http://www.w3.org/2000/svg">
<rect width="100" height="100" fill="#BDBDBD"/>
<path d="M0 0H100V100H0V0Z" fill="#F4F2ED"/>
<path d="M27.554 74.953L22.4485 17.6865H78.5516L73.441 74.9444L50.466 81.3139L27.554 74.953Z" fill="#1572B6"/>
<path d="M50.5005 76.4456L69.0656 71.2984L73.4333 22.3687H50.5005V76.4456Z" fill="#33A9DC"/>
<path d="M50.5005 43.1163H59.7945L60.4363 35.9242H50.5005V28.9006H68.1124L67.9438 30.7851L66.2173 50.1399H50.5005V43.1163Z" fill="white"/>
<path d="M50.5421 61.3569L50.5111 61.366L42.6893 59.254L42.1891 53.6523H35.1396L36.1233 64.6805L50.5101 68.6734L50.5421 68.6643V61.3569Z" fill="#EBEBEB"/>
<path d="M59.1974 49.8428L58.3513 59.2485L50.5178 61.363V68.6704L64.9163 64.68L65.022 63.4933L66.2438 49.8428H59.1974Z" fill="white"/>
<path d="M50.5243 28.9006V35.9242H33.5593L33.4187 34.3459L33.0987 30.7851L32.9307 28.9006H50.5243ZM50.5005 43.1174V50.1409H42.7771L42.6365 48.5626L42.3161 45.0018L42.1485 43.1174H50.5005Z" fill="#EBEBEB"/>
</svg>
