<svg width="100" height="100" viewBox="0 0 100 100" fill="none" xmlns="http://www.w3.org/2000/svg">
<rect width="100" height="100" fill="#BDBDBD"/>
<rect width="100" height="100" fill="#F4F2ED"/>
<path d="M65.6406 21H35.3594C27.9812 21 22 26.9812 22 34.3594V64.6406C22 72.0188 27.9812 78 35.3594 78H65.6406C73.0188 78 79 72.0188 79 64.6406V34.3594C79 26.9812 73.0188 21 65.6406 21Z" fill="#092E20"/>
<path d="M47.0909 32.3555H53.4622V61.8463C50.1938 62.4668 47.7943 62.7151 45.1881 62.7151C37.4098 62.7149 33.3555 59.1987 33.3555 52.4549C33.3555 45.9593 37.6583 41.7398 44.3191 41.7398C45.3533 41.7398 46.1393 41.8221 47.0909 42.0704V32.3555ZM47.0909 47.2002C46.3463 46.9524 45.7258 46.8695 44.9398 46.8695C41.7129 46.8695 39.8508 48.8554 39.8508 52.3304C39.8508 55.7232 41.63 57.5849 44.8984 57.5849C45.6013 57.5849 46.1809 57.5435 47.0909 57.4197V47.2002Z" fill="white"/>
<path d="M63.598 42.1947V56.964C63.598 62.053 63.2257 64.4938 62.1086 66.6039C61.0742 68.6314 59.7088 69.9137 56.8956 71.3204L50.9794 68.5069C53.7926 67.1832 55.158 66.0252 56.0265 64.2455C56.937 62.4253 57.2269 60.3152 57.2269 54.7715V42.1945L63.598 42.1947ZM57.2269 32.3894H63.598V38.9261H57.2269V32.3894Z" fill="white"/>
</svg>
