<svg width="100" height="100" viewBox="0 0 100 100" fill="none" xmlns="http://www.w3.org/2000/svg">
<rect width="100" height="100" fill="#BDBDBD"/>
<rect width="100" height="100" fill="#F4F2ED"/>
<path d="M74.55 25.3931C72.5639 23.407 70.1743 22.4148 67.3811 22.4166H33.5621C30.7671 22.4166 28.3775 23.4088 26.3931 25.3931C24.407 27.3792 23.4149 29.7689 23.4167 32.562V66.381C23.4167 69.176 24.4088 71.5657 26.3931 73.55C28.3793 75.5361 30.7689 76.5282 33.5621 76.5264H41.4542C41.9688 76.5264 42.3561 76.5084 42.6161 76.4723C42.9189 76.4124 43.1922 76.2509 43.3906 76.0145C43.6488 75.7437 43.7779 75.351 43.7779 74.8364L43.759 72.4395C43.7481 70.912 43.7427 69.7023 43.7427 68.8104L42.9302 68.9512C42.4156 69.0451 41.7647 69.0866 40.9775 69.0758C40.1561 69.0601 39.3373 68.9777 38.5292 68.8293C37.6682 68.6732 36.8579 68.3108 36.1675 67.7731C35.4429 67.2251 34.9025 66.4693 34.6184 65.6064L34.2663 64.7939C33.9684 64.1536 33.5956 63.5509 33.1559 62.9983C32.6503 62.3411 32.1393 61.8951 31.6229 61.6604L31.3792 61.4843C31.2099 61.3617 31.0554 61.22 30.9188 61.0618C30.7882 60.9149 30.6813 60.7487 30.6019 60.5689C30.5315 60.4028 30.5902 60.2674 30.7779 60.1627C30.9657 60.0543 31.307 60.0011 31.8017 60.0029L32.5059 60.1112C32.9753 60.2033 33.5558 60.4841 34.2473 60.9535C34.9462 61.43 35.5301 62.0564 35.9563 62.787C36.4979 63.7476 37.1497 64.4816 37.9117 64.9889C38.6754 65.4945 39.4446 65.7473 40.2192 65.7473C40.9938 65.7473 41.6636 65.6886 42.2288 65.5712C42.7761 65.4578 43.308 65.2796 43.8132 65.0404C44.0244 63.4677 44.5995 62.258 45.5384 61.4112C44.3208 61.2909 43.1139 61.079 41.9281 60.7775C40.771 60.46 39.6582 59.9987 38.6159 59.4043C37.5251 58.8105 36.5616 58.0081 35.7802 57.0427C35.0291 56.1038 34.4125 54.8715 33.9304 53.3458C33.4502 51.8183 33.21 50.0561 33.21 48.0591C33.21 45.219 34.1372 42.7995 35.9915 40.8008C35.1248 38.6648 35.207 36.2707 36.2379 33.6183C36.9204 33.4052 37.9306 33.5632 39.2686 34.0923C40.6065 34.6213 41.5869 35.0727 42.2098 35.4464C42.8327 35.8256 43.332 36.1434 43.7075 36.3998C45.9091 35.7859 48.1847 35.4779 50.4702 35.4843C52.7958 35.4843 55.0509 35.7895 57.2357 36.3998L58.5736 35.5548C59.6027 34.9369 60.6882 34.4182 61.8154 34.0056C63.0595 33.5361 64.011 33.407 64.67 33.6183C65.7263 36.2725 65.8193 38.6675 64.949 40.8035C66.8051 42.7986 67.7332 45.2181 67.7332 48.0618C67.7332 50.0588 67.4921 51.8255 67.01 53.362C66.5297 54.9004 65.9077 56.1336 65.144 57.0616C64.3466 58.0124 63.3796 58.8067 62.2921 59.4043C61.1546 60.0381 60.0505 60.4958 58.9798 60.7775C57.7941 61.0799 56.5873 61.2927 55.3696 61.4139C56.5884 62.4702 57.1986 64.1367 57.2004 66.4135V74.8364C57.2004 75.2336 57.2591 75.5559 57.3765 75.8033C57.4313 75.922 57.5094 76.0285 57.6061 76.1165C57.7029 76.2044 57.8164 76.272 57.9398 76.3152C58.198 76.4091 58.4273 76.4668 58.6277 76.4885C58.8282 76.5138 59.1152 76.5255 59.489 76.5237H67.3811C70.1761 76.5237 72.5657 75.5316 74.55 73.5473C76.5343 71.5629 77.5265 69.1733 77.5265 66.3783V32.562C77.5265 29.767 76.5361 27.3774 74.55 25.3931Z" fill="#292323"/>
</svg>
