<svg width="100" height="100" viewBox="0 0 100 100" fill="none" xmlns="http://www.w3.org/2000/svg">
<rect width="100" height="100" fill="#BDBDBD"/>
<path d="M0 0H100V100H0V0Z" fill="#F4F2ED"/>
<mask id="mask0_0_1" style="mask-type:luminance" maskUnits="userSpaceOnUse" x="29" y="21" width="42" height="58">
<path d="M29.5187 21.4531H70.5266V78.5469H29.5187V21.4531Z" fill="white"/>
</mask>
<g mask="url(#mask0_0_1)">
<path fill-rule="evenodd" clip-rule="evenodd" d="M30.5609 52.1297C30.6516 53.7156 32.2375 52.9906 32.9625 52.4922C33.6422 51.9937 33.8688 52.4015 33.9141 51.45C33.9594 50.8156 34.0047 50.2265 34.0047 49.5922C32.9625 49.5015 31.8297 49.7281 30.9688 50.3625C30.5609 50.6797 29.7 51.7218 30.5609 52.1297Z" fill="#F6D2A2"/>
</g>
<mask id="mask1_0_1" style="mask-type:luminance" maskUnits="userSpaceOnUse" x="29" y="21" width="42" height="58">
<path d="M29.5187 21.4531H70.5266V78.5469H29.5187V21.4531Z" fill="white"/>
</mask>
<g mask="url(#mask1_0_1)">
<path d="M31.4218 53.2625C31.1047 53.2625 30.5156 53.1266 30.425 52.2204C30.1531 52.0391 30.0625 51.8125 30.0625 51.6766C30.0172 51.1329 30.6062 50.4985 30.9234 50.2719C31.6484 49.7282 32.6 49.4563 33.5968 49.4563H34.1859V49.5922C34.2312 50.0907 34.1859 50.5891 34.1406 51.0422C34.1406 51.1782 34.1406 51.3141 34.0953 51.45C34.05 52.1297 33.914 52.2204 33.5968 52.3563C33.4609 52.4016 33.325 52.4469 33.0984 52.6282C32.8718 52.7641 32.1015 53.2625 31.4218 53.2625ZM33.5968 49.7282C32.6453 49.7282 31.7843 50 31.1047 50.4985C30.7875 50.725 30.3343 51.2688 30.3797 51.6313C30.3797 51.7672 30.4703 51.9032 30.6515 51.9938L30.7422 52.0391V52.1297C30.7875 52.8547 31.15 52.9454 31.4218 52.9454C31.875 52.9454 32.5093 52.6282 32.9172 52.3563C33.189 52.175 33.3703 52.1297 33.5062 52.0844C33.7328 51.9938 33.7781 51.9938 33.8234 51.45C33.8234 51.3141 33.8234 51.1782 33.8687 51.0422C33.914 50.6344 33.914 50.1813 33.914 49.7735C33.7781 49.7282 33.6875 49.7282 33.5968 49.7282Z" fill="black"/>
</g>
<mask id="mask2_0_1" style="mask-type:luminance" maskUnits="userSpaceOnUse" x="29" y="21" width="42" height="58">
<path d="M29.5187 21.4531H70.5266V78.5469H29.5187V21.4531Z" fill="white"/>
</mask>
<g mask="url(#mask2_0_1)">
<path fill-rule="evenodd" clip-rule="evenodd" d="M30.5609 52.1296C30.7875 52.039 31.0594 51.9937 31.1953 51.7671Z" fill="#C6B198"/>
</g>
<mask id="mask3_0_1" style="mask-type:luminance" maskUnits="userSpaceOnUse" x="29" y="21" width="42" height="58">
<path d="M29.5187 21.4531H70.5266V78.5469H29.5187V21.4531Z" fill="white"/>
</mask>
<g mask="url(#mask3_0_1)">
<path d="M30.5609 52.2657C30.5156 52.2657 30.425 52.2204 30.425 52.1751C30.3797 52.0844 30.425 51.9938 30.5156 51.9938C30.5609 51.9938 30.6063 51.9485 30.6063 51.9485C30.7875 51.8579 30.9688 51.8126 31.0594 51.6766C31.1047 51.6313 31.1953 51.586 31.2859 51.6313C31.3313 51.6766 31.3766 51.7673 31.3313 51.8579C31.15 52.0844 30.9234 52.1751 30.7422 52.2204L30.6516 52.2657H30.5609Z" fill="black"/>
</g>
<mask id="mask4_0_1" style="mask-type:luminance" maskUnits="userSpaceOnUse" x="29" y="21" width="42" height="58">
<path d="M29.5187 21.4531H70.5266V78.5469H29.5187V21.4531Z" fill="white"/>
</mask>
<g mask="url(#mask4_0_1)">
<path fill-rule="evenodd" clip-rule="evenodd" d="M34.2765 32.9626C28.114 31.2407 32.6906 23.4016 37.6297 26.6188L34.2765 32.9626Z" fill="#6AD7E5"/>
</g>
<mask id="mask5_0_1" style="mask-type:luminance" maskUnits="userSpaceOnUse" x="29" y="21" width="42" height="58">
<path d="M29.5187 21.4531H70.5266V78.5469H29.5187V21.4531Z" fill="white"/>
</mask>
<g mask="url(#mask5_0_1)">
<path d="M34.3672 33.1437L34.2312 33.0983C31.0593 32.1921 31.1047 29.9265 31.1953 29.2468C31.4218 27.5249 33.0531 25.7124 35.2281 25.7124C36.089 25.7124 36.9047 25.9843 37.7203 26.528L37.8562 26.6187L34.3672 33.1437ZM35.2281 26.0296C33.189 26.0296 31.6937 27.7062 31.4672 29.2921C31.2406 30.9233 32.2375 32.1921 34.1859 32.7812L37.4031 26.664C36.7234 26.2562 35.9984 26.0296 35.2281 26.0296Z" fill="black"/>
</g>
<mask id="mask6_0_1" style="mask-type:luminance" maskUnits="userSpaceOnUse" x="29" y="21" width="42" height="58">
<path d="M29.5187 21.4531H70.5266V78.5469H29.5187V21.4531Z" fill="white"/>
</mask>
<g mask="url(#mask6_0_1)">
<path fill-rule="evenodd" clip-rule="evenodd" d="M61.6 26.0297C66.4484 22.6313 70.889 30.3344 65.225 32.2828L61.6 26.0297Z" fill="#6AD7E5"/>
</g>
<mask id="mask7_0_1" style="mask-type:luminance" maskUnits="userSpaceOnUse" x="29" y="21" width="42" height="58">
<path d="M29.5187 21.4531H70.5266V78.5469H29.5187V21.4531Z" fill="white"/>
</mask>
<g mask="url(#mask7_0_1)">
<path d="M65.1797 32.4641L61.4187 25.9844L61.5547 25.8938C62.4156 25.3047 63.2765 24.9875 64.1375 24.9875C66.2219 24.9875 67.7172 26.7094 68.0344 28.386C68.1703 29.0657 68.3062 31.3766 65.3156 32.3735L65.1797 32.4641ZM61.8265 26.1204L65.3156 32.1469C67.0828 31.5125 67.989 30.1532 67.7172 28.5219C67.4453 26.9813 66.0406 25.3954 64.1375 25.3954C63.3672 25.35 62.5969 25.5766 61.8265 26.1204Z" fill="black"/>
</g>
<mask id="mask8_0_1" style="mask-type:luminance" maskUnits="userSpaceOnUse" x="29" y="21" width="42" height="58">
<path d="M29.5187 21.4531H70.5266V78.5469H29.5187V21.4531Z" fill="white"/>
</mask>
<g mask="url(#mask8_0_1)">
<path fill-rule="evenodd" clip-rule="evenodd" d="M62.6875 71.886C63.9109 72.6563 66.1766 74.9672 64.3187 76.1C62.5516 77.7313 61.5547 74.2875 59.9688 73.8344C60.6484 72.9282 61.5094 72.0672 62.6875 71.886Z" fill="#F6D2A2"/>
</g>
<mask id="mask9_0_1" style="mask-type:luminance" maskUnits="userSpaceOnUse" x="29" y="21" width="42" height="58">
<path d="M29.5187 21.4531H70.5266V78.5469H29.5187V21.4531Z" fill="white"/>
</mask>
<g mask="url(#mask9_0_1)">
<path d="M63.3672 76.6891C62.6422 76.6891 62.0078 75.9641 61.4641 75.2844C60.9656 74.7406 60.4672 74.1516 59.9234 73.9703L59.6969 73.925L59.8328 73.7438C60.3766 72.9734 61.2828 71.9766 62.6422 71.75H62.6875L62.7328 71.7953C63.5031 72.2937 65.1797 73.6984 65.1344 75.0125C65.1344 75.5109 64.8625 75.9188 64.3641 76.2359C64.0469 76.5531 63.7297 76.6891 63.3672 76.6891ZM60.1953 73.7438C60.7391 73.9703 61.1922 74.5594 61.6453 75.0578C62.1891 75.7375 62.7328 76.3266 63.3219 76.3266C63.5937 76.3266 63.8656 76.1906 64.1375 75.9187H64.1828C64.5906 75.6469 64.8172 75.3297 64.8172 74.9219C64.8172 73.8797 63.5031 72.5656 62.5969 71.9766C61.7812 72.2031 60.9656 72.7469 60.1953 73.7438ZM64.3187 76.2359C64.2734 76.2359 64.2281 76.1906 64.1828 76.1453C64.0922 75.9641 64.0016 75.7375 63.9562 75.5563C63.8203 75.1938 63.6844 74.8312 63.4125 74.5594C63.3672 74.5141 63.3672 74.4234 63.4125 74.3328C63.4578 74.2875 63.5484 74.2875 63.6391 74.3328C63.9562 74.65 64.1375 75.0578 64.2734 75.4656L64.5 76.0094C64.5453 76.1 64.5 76.1906 64.4547 76.2359H64.3187Z" fill="black"/>
</g>
<mask id="mask10_0_1" style="mask-type:luminance" maskUnits="userSpaceOnUse" x="29" y="21" width="42" height="58">
<path d="M29.5187 21.4531H70.5266V78.5469H29.5187V21.4531Z" fill="white"/>
</mask>
<g mask="url(#mask10_0_1)">
<path fill-rule="evenodd" clip-rule="evenodd" d="M40.575 74.5141C39.125 74.7406 38.3094 76.0547 37.0859 76.7344C35.9531 77.4141 35.5 76.5078 35.4094 76.3266C35.2281 76.2359 35.2281 76.4172 34.9562 76.1453C33.9141 74.4687 36.0437 73.2453 37.1766 72.4297C38.7625 72.0672 39.7594 73.4266 40.575 74.5141Z" fill="#F6D2A2"/>
</g>
<mask id="mask11_0_1" style="mask-type:luminance" maskUnits="userSpaceOnUse" x="29" y="21" width="42" height="58">
<path d="M29.5187 21.4531H70.5266V78.5469H29.5187V21.4531Z" fill="white"/>
</mask>
<g mask="url(#mask11_0_1)">
<path d="M36.3156 77.0969C35.7266 77.0969 35.4094 76.5984 35.3187 76.4172H35.2734C35.1375 76.4172 35.0469 76.3719 34.8656 76.1906V76.1453C33.8687 74.5594 35.5906 73.3359 36.7234 72.5203L37.1312 72.2484H37.2219C37.4031 72.2031 37.5391 72.2031 37.7203 72.2031C39.0797 72.2031 39.9406 73.3812 40.6656 74.3328L40.8922 74.65L40.6203 74.6953C39.7594 74.8312 39.125 75.375 38.4906 75.9187C38.0828 76.2812 37.675 76.5984 37.2219 76.8703C36.8594 77.0063 36.5875 77.0969 36.3156 77.0969ZM35.3187 76.1453C35.3641 76.1453 35.4094 76.1453 35.5 76.1906H35.5453L35.5906 76.2359C35.6813 76.3719 35.9078 76.7797 36.3609 76.7797C36.5875 76.7797 36.8141 76.6891 37.0406 76.5531C37.4938 76.3266 37.9016 75.9641 38.2641 75.6469C38.8531 75.1484 39.4875 74.6047 40.3031 74.3781C39.6234 73.4719 38.8078 72.475 37.675 72.475C37.5391 72.475 37.4031 72.475 37.2672 72.5203L36.9047 72.7922C35.7266 73.6078 34.2766 74.65 35.1375 76.0094C35.1828 76.1 35.2281 76.1453 35.3187 76.1453ZM35.4094 76.4625C35.3187 76.4625 35.2281 76.3719 35.2734 76.2812C35.3187 75.8281 35.5453 75.5109 35.7719 75.1484C35.9078 74.9672 35.9984 74.7859 36.0891 74.6047C36.1344 74.5141 36.225 74.5141 36.2703 74.5141C36.3609 74.5594 36.3609 74.65 36.3609 74.6953C36.2703 74.9219 36.1344 75.1031 35.9984 75.2844C35.7719 75.6016 35.5906 75.8734 35.5453 76.2359C35.5453 76.4172 35.5 76.4625 35.4094 76.4625Z" fill="black"/>
</g>
<mask id="mask12_0_1" style="mask-type:luminance" maskUnits="userSpaceOnUse" x="29" y="21" width="42" height="58">
<path d="M29.5187 21.4531H70.5266V78.5469H29.5187V21.4531Z" fill="white"/>
</mask>
<g mask="url(#mask12_0_1)">
<path fill-rule="evenodd" clip-rule="evenodd" d="M34.5484 30.8329C33.7328 30.4251 33.1437 29.836 33.6422 28.8845C34.0953 28.0235 34.9562 28.1142 35.7719 28.522L34.5484 30.8329ZM63.9562 30.0173C64.7719 29.6095 65.3609 29.0204 64.8625 28.0688C64.4094 27.2079 63.5484 27.2985 62.7328 27.7063L63.9562 30.0173Z" fill="black"/>
</g>
<mask id="mask13_0_1" style="mask-type:luminance" maskUnits="userSpaceOnUse" x="29" y="21" width="42" height="58">
<path d="M29.5187 21.4531H70.5266V78.5469H29.5187V21.4531Z" fill="white"/>
</mask>
<g mask="url(#mask13_0_1)">
<path fill-rule="evenodd" clip-rule="evenodd" d="M69.5297 51.9031C69.4391 53.489 67.8531 52.764 67.1281 52.2656C66.4484 51.7672 66.2219 52.175 66.1766 51.2234C66.1312 50.589 66.0859 50 66.0859 49.3656C67.1281 49.275 68.2609 49.5015 69.1219 50.1359C69.575 50.4984 70.3906 51.4953 69.5297 51.9031Z" fill="#F6D2A2"/>
</g>
<mask id="mask14_0_1" style="mask-type:luminance" maskUnits="userSpaceOnUse" x="29" y="21" width="42" height="58">
<path d="M29.5187 21.4531H70.5266V78.5469H29.5187V21.4531Z" fill="white"/>
</mask>
<g mask="url(#mask14_0_1)">
<path d="M68.714 53.036C68.0344 53.036 67.264 52.5376 67.0375 52.4016C66.8109 52.2657 66.675 52.175 66.539 52.1297C66.1765 51.9938 66.0859 51.9032 66.0406 51.2235C66.0406 51.0875 66.0406 50.9516 65.9953 50.8157C65.95 50.3626 65.9047 49.8641 65.95 49.3657V49.2297H66.539C67.5359 49.2297 68.4875 49.5016 69.2125 50.0454C69.5297 50.2719 70.1187 50.9063 70.0734 51.45C70.0734 51.6313 69.9828 51.8579 69.7109 51.9938C69.6203 52.9 69.0312 53.036 68.714 53.036ZM66.2219 49.5469C66.2219 49.9547 66.2219 50.4079 66.2672 50.8157C66.2672 50.9516 66.2672 51.0875 66.3125 51.2235C66.3578 51.7672 66.4031 51.7672 66.6297 51.8579C66.7656 51.9032 66.9469 51.9938 67.2187 52.1297C67.6265 52.4016 68.2609 52.7188 68.714 52.7188C68.9859 52.7188 69.3484 52.6282 69.3937 51.9032V51.8125L69.4844 51.7672C69.6656 51.6766 69.7562 51.586 69.7562 51.4047C69.8015 51.0422 69.3484 50.4985 69.0312 50.2719C68.3515 49.7735 67.4453 49.5016 66.539 49.5016C66.4484 49.5469 66.3578 49.5469 66.2219 49.5469Z" fill="black"/>
</g>
<mask id="mask15_0_1" style="mask-type:luminance" maskUnits="userSpaceOnUse" x="29" y="21" width="42" height="58">
<path d="M29.5187 21.4531H70.5266V78.5469H29.5187V21.4531Z" fill="white"/>
</mask>
<g mask="url(#mask15_0_1)">
<path fill-rule="evenodd" clip-rule="evenodd" d="M69.5297 51.903C69.3031 51.8124 69.0312 51.7671 68.8953 51.5405Z" fill="#C6B198"/>
</g>
<mask id="mask16_0_1" style="mask-type:luminance" maskUnits="userSpaceOnUse" x="29" y="21" width="42" height="58">
<path d="M29.5187 21.4531H70.5266V78.5469H29.5187V21.4531Z" fill="white"/>
</mask>
<g mask="url(#mask16_0_1)">
<path d="M69.5297 52.0843H69.4844L69.3937 52.039C69.1672 51.9484 68.9406 51.9031 68.8047 51.6765C68.7594 51.6312 68.7594 51.4952 68.85 51.4499C68.8953 51.4046 69.0312 51.4046 69.0765 51.4952C69.1672 51.6312 69.3484 51.6765 69.5297 51.7671C69.575 51.7671 69.6203 51.8124 69.6203 51.8124C69.7109 51.8577 69.7562 51.9484 69.7109 51.9937C69.6656 52.039 69.575 52.0843 69.5297 52.0843Z" fill="black"/>
</g>
<mask id="mask17_0_1" style="mask-type:luminance" maskUnits="userSpaceOnUse" x="29" y="21" width="42" height="58">
<path d="M29.5187 21.4531H70.5266V78.5469H29.5187V21.4531Z" fill="white"/>
</mask>
<g mask="url(#mask17_0_1)">
<path fill-rule="evenodd" clip-rule="evenodd" d="M49.4562 22.8125C55.6187 22.8125 61.3734 23.6734 64.4093 29.6094C67.1281 36.225 66.1312 43.3844 66.5843 50.4078C66.9468 56.4344 67.7172 63.3672 64.9531 68.9406C62.0078 74.7859 54.6672 76.2812 48.6406 76.0547C43.8828 75.8734 38.1734 74.3328 35.4547 69.9828C32.3281 64.9078 33.7781 57.3406 34.0047 51.6766C34.2765 44.9703 32.1922 38.2188 34.4125 31.6938C36.6328 24.8516 42.7953 23.3109 49.4562 22.8125Z" fill="#6AD7E5"/>
</g>
<mask id="mask18_0_1" style="mask-type:luminance" maskUnits="userSpaceOnUse" x="29" y="21" width="42" height="58">
<path d="M29.5187 21.4531H70.5266V78.5469H29.5187V21.4531Z" fill="white"/>
</mask>
<g mask="url(#mask18_0_1)">
<path d="M49.6828 76.2358H48.55C46.6922 76.1905 43.8828 75.8733 41.1187 74.7405C38.4453 73.653 36.4969 72.1124 35.2281 70.0733C32.6906 65.9499 33.1437 60.2858 33.5516 55.2561C33.6422 53.9874 33.7328 52.8093 33.7781 51.6764C33.8687 49.3202 33.6875 46.8733 33.4609 44.5624C33.0984 40.303 32.7359 35.9077 34.1406 31.6483C35.2281 28.4764 37.1766 26.2108 40.1219 24.7608C42.4328 23.628 45.2875 22.9936 49.3656 22.6764C55.4375 22.6311 61.4641 23.4921 64.5 29.5186C66.4937 34.3671 66.4937 39.578 66.5391 44.6077C66.5391 46.5108 66.5391 48.4593 66.675 50.3624C66.7203 50.9514 66.7656 51.5405 66.7656 52.1296C67.1281 57.6577 67.5359 63.9108 64.9984 68.9858C63.7297 71.5686 61.5094 73.4718 58.4734 74.6952C56.0266 75.6921 52.9453 76.2358 49.6828 76.2358ZM49.4562 22.9483C43.0672 23.4468 36.8141 24.8514 34.5031 31.7389C33.0984 35.953 33.4609 40.303 33.8234 44.5171C34.0047 46.8733 34.2312 49.2749 34.1406 51.6764C34.0953 52.8093 34.0047 53.9874 33.9141 55.2561C33.5062 60.2405 33.0531 65.8593 35.5453 69.8921C36.5875 71.5686 39.9406 75.5561 48.5953 75.8733H49.7281C59.7422 75.8733 63.4578 71.4327 64.8172 68.8046C67.3094 63.8202 66.9015 57.5671 66.5844 52.0843C66.539 51.4952 66.4937 50.9061 66.4937 50.3171C66.4031 48.4139 66.3578 46.4655 66.3578 44.5624C66.3125 39.578 66.3125 34.3671 64.364 29.5639C63.0047 26.8905 60.9656 25.078 58.1562 24.0358C55.2562 23.0843 51.9937 22.9483 49.4562 22.9483Z" fill="black"/>
</g>
<mask id="mask19_0_1" style="mask-type:luminance" maskUnits="userSpaceOnUse" x="29" y="21" width="42" height="58">
<path d="M29.5187 21.4531H70.5266V78.5469H29.5187V21.4531Z" fill="white"/>
</mask>
<g mask="url(#mask19_0_1)">
<path fill-rule="evenodd" clip-rule="evenodd" d="M50.5437 31.0593C51.6312 37.4936 62.1437 35.7718 60.6484 29.2921C59.289 23.4921 50.1812 25.1233 50.5437 31.0593Z" fill="white"/>
</g>
<mask id="mask20_0_1" style="mask-type:luminance" maskUnits="userSpaceOnUse" x="29" y="21" width="42" height="58">
<path d="M29.5187 21.4531H70.5266V78.5469H29.5187V21.4531Z" fill="white"/>
</mask>
<g mask="url(#mask20_0_1)">
<path d="M55.5281 35.2735C53.489 35.2735 50.9062 34.186 50.3625 31.1048C50.2719 29.6548 50.725 28.3407 51.6765 27.3438C52.7187 26.211 54.3047 25.5767 55.9359 25.5767C57.8391 25.5767 60.1047 26.5735 60.739 29.3376C61.1015 30.8782 60.8297 32.2376 59.9687 33.3251C59.0172 34.5032 57.3406 35.2735 55.5281 35.2735ZM50.6797 31.0595C50.9062 32.3282 51.4953 33.3251 52.4469 34.0501C53.2625 34.6845 54.3953 35.0017 55.5281 35.0017C57.2047 35.0017 58.8359 34.2767 59.7422 33.1438C60.5578 32.147 60.7844 30.8329 60.4672 29.3829C59.8781 26.8001 57.7484 25.8938 55.9359 25.8938C54.3953 25.8938 52.9 26.5282 51.9031 27.5704C51.0422 28.4767 50.5891 29.7001 50.6797 31.0595Z" fill="black"/>
</g>
<mask id="mask21_0_1" style="mask-type:luminance" maskUnits="userSpaceOnUse" x="29" y="21" width="42" height="58">
<path d="M29.5187 21.4531H70.5266V78.5469H29.5187V21.4531Z" fill="white"/>
</mask>
<g mask="url(#mask21_0_1)">
<path fill-rule="evenodd" clip-rule="evenodd" d="M37.9922 32.1016C39.4422 37.6751 48.3688 36.2704 48.0516 30.6516C47.6438 23.9454 36.5875 25.2141 37.9922 32.1016Z" fill="white"/>
</g>
<mask id="mask22_0_1" style="mask-type:luminance" maskUnits="userSpaceOnUse" x="29" y="21" width="42" height="58">
<path d="M29.5187 21.4531H70.5266V78.5469H29.5187V21.4531Z" fill="white"/>
</mask>
<g mask="url(#mask22_0_1)">
<path d="M42.75 35.8171C40.8015 35.8171 38.5359 34.8656 37.8109 32.1468C37.4937 30.5609 37.8109 29.1109 38.7172 28.0234C39.714 26.8 41.3453 26.075 43.1125 26.075C45.4687 26.075 47.9609 27.4796 48.1422 30.6515C48.2328 31.9656 47.825 33.1437 46.9187 34.0953C45.9672 35.1375 44.3812 35.8171 42.75 35.8171ZM43.1125 26.3921C41.4359 26.3921 39.8953 27.0718 38.9437 28.2046C38.0828 29.2468 37.8109 30.5609 38.1281 32.0562C38.7625 34.5937 40.9375 35.5 42.75 35.5C44.2906 35.5 45.7859 34.9109 46.7375 33.8687C47.5531 33.0078 47.9609 31.875 47.8703 30.6515C47.7797 28.7031 46.4656 26.3921 43.1125 26.3921Z" fill="black"/>
</g>
<mask id="mask23_0_1" style="mask-type:luminance" maskUnits="userSpaceOnUse" x="29" y="21" width="42" height="58">
<path d="M29.5187 21.4531H70.5266V78.5469H29.5187V21.4531Z" fill="white"/>
</mask>
<g mask="url(#mask23_0_1)">
<path fill-rule="evenodd" clip-rule="evenodd" d="M51.8125 38.7624C51.8125 39.578 51.9937 40.5296 51.8578 41.4358C51.6312 41.8437 51.2234 41.889 50.8609 42.0249C50.3625 41.9343 49.9547 41.6171 49.7281 41.164C49.5922 40.1671 49.7734 39.1702 49.8187 38.1733L51.8125 38.7624Z" fill="white"/>
</g>
<mask id="mask24_0_1" style="mask-type:luminance" maskUnits="userSpaceOnUse" x="29" y="21" width="42" height="58">
<path d="M29.5187 21.4531H70.5266V78.5469H29.5187V21.4531Z" fill="white"/>
</mask>
<g mask="url(#mask24_0_1)">
<path d="M50.8609 42.2063C50.2719 42.1157 49.8187 41.7532 49.5922 41.2548C49.5016 40.5298 49.5469 39.8501 49.5922 39.1704C49.6375 38.8532 49.6375 38.536 49.6375 38.2188V38.0376L51.9484 38.7626V38.8532C51.9484 39.1251 51.9937 39.397 51.9937 39.7142C52.0391 40.3032 52.0844 40.9376 51.9937 41.5267V41.572C51.8125 41.9345 51.4953 42.0251 51.1781 42.161C51.0875 42.1157 50.9969 42.161 50.8609 42.2063ZM49.8641 41.1188C50.0453 41.5267 50.4078 41.7985 50.8156 41.8892C50.9062 41.8438 50.9969 41.8438 51.0422 41.7985C51.3141 41.7079 51.5406 41.6173 51.6766 41.3907C51.7672 40.847 51.7219 40.2579 51.6766 39.6688C51.6766 39.397 51.6312 39.1251 51.6312 38.8985L49.9094 38.3548C49.9094 38.6267 49.8641 38.8985 49.8641 39.1251C49.8187 39.8501 49.7734 40.4845 49.8641 41.1188Z" fill="black"/>
</g>
<mask id="mask25_0_1" style="mask-type:luminance" maskUnits="userSpaceOnUse" x="29" y="21" width="42" height="58">
<path d="M29.5187 21.4531H70.5266V78.5469H29.5187V21.4531Z" fill="white"/>
</mask>
<g mask="url(#mask25_0_1)">
<path fill-rule="evenodd" clip-rule="evenodd" d="M41.9797 31.1952C41.9797 32.1015 41.3 32.8265 40.4844 32.8265C39.6687 32.8265 38.989 32.1015 38.989 31.1952C38.989 30.289 39.6687 29.564 40.4844 29.564C41.3 29.564 41.9797 30.289 41.9797 31.1952Z" fill="black"/>
</g>
<mask id="mask26_0_1" style="mask-type:luminance" maskUnits="userSpaceOnUse" x="29" y="21" width="42" height="58">
<path d="M29.5187 21.4531H70.5266V78.5469H29.5187V21.4531Z" fill="white"/>
</mask>
<g mask="url(#mask26_0_1)">
<path fill-rule="evenodd" clip-rule="evenodd" d="M41.4812 31.5577C41.4812 31.7843 41.3 31.9655 41.1187 31.9655C40.9375 31.9655 40.7562 31.7843 40.7562 31.5577C40.7562 31.3312 40.9375 31.1499 41.1187 31.1499C41.3453 31.1499 41.4812 31.3312 41.4812 31.5577Z" fill="white"/>
</g>
<mask id="mask27_0_1" style="mask-type:luminance" maskUnits="userSpaceOnUse" x="29" y="21" width="42" height="58">
<path d="M29.5187 21.4531H70.5266V78.5469H29.5187V21.4531Z" fill="white"/>
</mask>
<g mask="url(#mask27_0_1)">
<path fill-rule="evenodd" clip-rule="evenodd" d="M54.6219 30.7875C54.6219 31.6938 53.9422 32.4188 53.1265 32.4188C52.3109 32.4188 51.6312 31.6938 51.6312 30.7875C51.6312 29.8813 52.3109 29.1562 53.1265 29.1562C53.9422 29.1562 54.6219 29.8813 54.6219 30.7875Z" fill="black"/>
</g>
<mask id="mask28_0_1" style="mask-type:luminance" maskUnits="userSpaceOnUse" x="29" y="21" width="42" height="58">
<path d="M29.5187 21.4531H70.5266V78.5469H29.5187V21.4531Z" fill="white"/>
</mask>
<g mask="url(#mask28_0_1)">
<path fill-rule="evenodd" clip-rule="evenodd" d="M54.1687 31.15C54.1687 31.3766 54.0328 31.5578 53.8062 31.5578C53.625 31.5578 53.4437 31.3766 53.4437 31.15C53.4437 30.9234 53.5797 30.7422 53.8062 30.7422C53.9875 30.7422 54.1687 30.9234 54.1687 31.15ZM47.4625 38.6719C46.7828 40.2578 47.825 43.475 49.6375 41.1188C49.5015 40.1219 49.6828 39.125 49.7281 38.1281L47.4625 38.6719Z" fill="white"/>
</g>
<mask id="mask29_0_1" style="mask-type:luminance" maskUnits="userSpaceOnUse" x="29" y="21" width="42" height="58">
<path d="M29.5187 21.4531H70.5266V78.5469H29.5187V21.4531Z" fill="white"/>
</mask>
<g mask="url(#mask29_0_1)">
<path d="M48.414 42.1157C48.0969 42.1157 47.7797 41.9344 47.5531 41.5719C47.0547 40.8469 46.964 39.4875 47.3265 38.6266L47.3719 38.536L49.864 37.9016V38.0829L49.8187 39.0797C49.7734 39.7594 49.7281 40.3938 49.8187 41.0735V41.1188L49.7734 41.1641C49.3203 41.7985 48.8672 42.1157 48.414 42.1157ZM47.5984 38.8079C47.3265 39.5782 47.4172 40.8016 47.825 41.3907C48.0062 41.6625 48.1875 41.7985 48.414 41.7985C48.7312 41.7985 49.0937 41.5266 49.4562 41.0735C49.3656 40.3938 49.4109 39.7141 49.5015 39.0797L49.5469 38.3094L47.5984 38.8079Z" fill="black"/>
</g>
<mask id="mask30_0_1" style="mask-type:luminance" maskUnits="userSpaceOnUse" x="29" y="21" width="42" height="58">
<path d="M29.5187 21.4531H70.5266V78.5469H29.5187V21.4531Z" fill="white"/>
</mask>
<g mask="url(#mask30_0_1)">
<path fill-rule="evenodd" clip-rule="evenodd" d="M47.689 35.5907C46.4656 35.6813 45.4687 37.1766 46.1031 38.3094C46.964 39.85 48.8219 38.1735 50 38.3094C51.3594 38.3547 52.4469 39.7594 53.5344 38.5813C54.7578 37.2672 52.9906 35.9985 51.6765 35.4094L47.689 35.5907Z" fill="#F6D2A2"/>
</g>
<mask id="mask31_0_1" style="mask-type:luminance" maskUnits="userSpaceOnUse" x="29" y="21" width="42" height="58">
<path d="M29.5187 21.4531H70.5266V78.5469H29.5187V21.4531Z" fill="white"/>
</mask>
<g mask="url(#mask31_0_1)">
<path d="M52.5828 39.2156C52.175 39.2156 51.7672 39.0344 51.3594 38.8531C50.9516 38.6719 50.4984 38.4906 50 38.4906H49.8641C49.5016 38.4906 49.0937 38.6266 48.6406 38.8078C48.1422 38.9891 47.6437 39.125 47.1906 39.125C46.6469 39.125 46.2391 38.8984 45.9672 38.4C45.65 37.8563 45.6953 37.2219 46.0125 36.6328C46.375 35.9531 47.0094 35.5453 47.6891 35.4547L51.7219 35.2734H51.7672C52.7641 35.6812 53.8969 36.4516 54.1234 37.3578C54.2141 37.8109 54.0781 38.2641 53.7156 38.6719C53.3531 39.0797 52.9906 39.2156 52.5828 39.2156ZM50.0453 38.2188C50.5437 38.2188 51.0422 38.4453 51.4953 38.6266C51.9031 38.8078 52.2656 38.9437 52.6281 38.9437C52.9453 38.9437 53.2172 38.8078 53.4891 38.5359C53.8062 38.2188 53.8969 37.8563 53.8516 37.4938C53.6703 36.7234 52.5828 35.9984 51.7219 35.6359L47.7797 35.8172C47.1906 35.8625 46.6469 36.2703 46.3297 36.8141C46.0578 37.3125 46.0578 37.8563 46.2844 38.3094C46.5109 38.7172 46.7828 38.8984 47.2359 38.8984C47.6437 38.8984 48.0969 38.7172 48.55 38.5812C49.0484 38.4 49.4562 38.2641 49.9094 38.2641C49.9094 38.1734 49.9547 38.1734 50.0453 38.2188Z" fill="#231F20"/>
</g>
<mask id="mask32_0_1" style="mask-type:luminance" maskUnits="userSpaceOnUse" x="29" y="21" width="42" height="58">
<path d="M29.5187 21.4531H70.5266V78.5469H29.5187V21.4531Z" fill="white"/>
</mask>
<g mask="url(#mask32_0_1)">
<path fill-rule="evenodd" clip-rule="evenodd" d="M47.5531 35.5453C47.4625 33.4156 51.5406 33.1437 51.9937 34.9109C52.4922 36.7234 47.7344 37.1312 47.5531 35.5453Z" fill="black"/>
</g>
</svg>
