<svg width="100" height="100" viewBox="0 0 100 100" fill="none" xmlns="http://www.w3.org/2000/svg">
<rect width="100" height="100" fill="#BDBDBD"/>
<rect width="100" height="100" fill="#F4F2ED"/>
<path d="M29.9884 72.252L25.4242 21.0625H75.5758L71.0054 72.2439L50.4695 77.9375L29.9884 72.252Z" fill="#E44F26"/>
<path d="M50.5 73.5867L67.0953 68.9859L70.9994 25.249H50.5V73.5867Z" fill="#F1662A"/>
<path d="M50.5 44.2329H42.1922L41.6194 37.804H50.5V31.5254H34.7578L34.9081 33.2113L36.4498 50.5115H50.5V44.2329ZM50.5 60.5377L50.4716 60.5459L43.48 58.6588L43.0331 53.6518H36.7302L37.6097 63.5074L50.4716 67.0784L50.5 67.0702V60.5377Z" fill="#EBEBEB"/>
<path d="M50.4777 44.2329V50.5115H58.2086L57.4814 58.6548L50.4777 60.5438V67.0763L63.3497 63.5074L63.4431 62.4471L64.9178 45.9188L65.0722 44.2329H50.4777ZM50.4777 31.5254V37.804H65.643L65.7689 36.3943L66.0553 33.2113L66.2056 31.5254H50.4777Z" fill="white"/>
</svg>
