<svg width="100" height="100" viewBox="0 0 100 100" fill="none" xmlns="http://www.w3.org/2000/svg">
<rect width="100" height="100" fill="#F4F2ED"/>
<path d="M76.5625 0H23.4375C10.4933 0 0 10.4933 0 23.4375V76.5625C0 89.5067 10.4933 100 23.4375 100H76.5625C89.5067 100 100 89.5067 100 76.5625V23.4375C100 10.4933 89.5067 0 76.5625 0Z" fill="#F4F2ED"/>
<path d="M39.7008 71.3356C39.7008 71.3356 36.7008 73.1614 41.7887 73.6836C47.9324 74.4665 51.1808 74.3356 57.9633 73.0321C57.9633 73.0321 59.7891 74.2075 62.268 75.1196C47.0043 81.6415 27.6988 74.7282 39.7008 71.3356ZM37.7441 62.8571C37.7441 62.8571 34.4824 65.336 39.5699 65.8567C46.2215 66.5086 51.4414 66.6395 60.4422 64.8149C60.4422 64.8149 61.6176 66.12 63.573 66.7719C45.1812 72.2504 24.5691 67.2926 37.7441 62.8583V62.8571ZM73.748 77.7282C73.748 77.7282 75.9652 79.554 71.2691 80.9899C62.5285 83.5985 34.6133 84.3825 26.7863 80.9899C24.0484 79.8145 29.2656 78.118 30.9605 77.859C32.6566 77.4676 33.5691 77.4676 33.5691 77.4676C30.5691 75.3801 13.6101 81.7723 24.9594 83.6118C56.1363 88.7004 81.8355 81.3946 73.7469 77.7415L73.748 77.7282ZM41.1355 53.9856C41.1355 53.9856 26.916 57.3782 36.0465 58.5508C39.9601 59.0715 47.6562 58.9422 54.8312 58.42C60.7015 57.8989 66.5851 56.8547 66.5851 56.8547C66.5851 56.8547 64.4973 57.768 63.0629 58.6805C48.5711 62.4669 20.7855 60.7708 28.7433 56.8571C35.5285 53.5954 41.1355 53.9856 41.1355 53.9856ZM66.5715 68.2047C81.1836 60.6383 74.3984 53.3336 69.7023 54.2473C68.5269 54.5079 68.0062 54.7684 68.0062 54.7684C68.0062 54.7684 68.3973 53.9856 69.3109 53.7266C78.5723 50.4649 85.8785 63.5102 66.3113 68.5977C66.3113 68.5977 66.4422 68.4669 66.5715 68.2063V68.2047ZM42.5699 88.8141C56.6586 89.7278 78.1824 88.293 78.7047 81.6387C78.7047 81.6387 77.6629 84.2473 67.0953 86.2043C55.0945 88.4215 40.2219 88.161 31.4828 86.7251C31.4828 86.7251 33.3086 88.2903 42.5711 88.8126L42.5699 88.8141Z" fill="#4E7896"/>
<path d="M57.6894 10.9375C57.6894 10.9375 65.7769 19.1559 49.9934 31.5469C37.3394 41.5906 47.1219 47.3312 49.9934 53.852C42.5578 47.2004 37.2113 41.3289 40.8617 35.85C46.223 27.7668 60.9617 23.8531 57.6894 10.9375ZM53.5156 48.3758C57.298 52.6805 52.4738 56.5941 52.4738 56.5941C52.4738 56.5941 62.1266 51.6387 57.6922 45.5055C53.6477 39.6352 50.5172 36.7648 67.4758 26.9801C67.4758 26.9801 40.7332 33.6316 53.5184 48.373L53.5156 48.3758Z" fill="#F58219"/>
</svg>
