<svg width="100" height="100" viewBox="0 0 100 100" fill="none" xmlns="http://www.w3.org/2000/svg">
<rect width="100" height="100" fill="#BDBDBD"/>
<rect width="100" height="100" fill="#F4F2ED"/>
<path d="M65.6406 21H35.3594C27.9812 21 22 26.9812 22 34.3594V64.6406C22 72.0188 27.9812 78 35.3594 78H65.6406C73.0188 78 79 72.0188 79 64.6406V34.3594C79 26.9812 73.0188 21 65.6406 21Z" fill="#F0DB4F"/>
<path d="M36.9874 68.6334L41.3492 65.9936C42.1909 67.4856 42.9564 68.7481 44.7926 68.7481C46.5527 68.7481 47.6624 68.0596 47.6624 65.3815V47.1687H53.0191V65.4572C53.0191 71.0051 49.767 73.5305 45.0222 73.5305C40.7372 73.5305 38.2499 71.3113 36.9872 68.633M55.9285 68.0594L60.2899 65.5343C61.4382 67.4092 62.9304 68.7866 65.5702 68.7866C67.7899 68.7866 69.2051 67.6769 69.2051 66.1463C69.2051 64.3099 67.7512 63.6593 65.3024 62.5883L63.9635 62.0141C60.0989 60.3691 57.5352 58.3028 57.5352 53.941C57.5352 49.9234 60.5963 46.8623 65.3792 46.8623C68.7845 46.8623 71.2333 48.0486 72.9931 51.1478L68.8226 53.8261C67.9041 52.1809 66.9097 51.5305 65.3792 51.5305C63.8104 51.5305 62.8155 52.5253 62.8155 53.8261C62.8155 55.433 63.8104 56.0836 66.1059 57.0787L67.445 57.6524C71.9981 59.604 74.5618 61.5932 74.5618 66.0697C74.5618 70.8911 70.7739 73.531 65.6851 73.531C60.7112 73.531 57.4972 71.1588 55.9285 68.0594Z" fill="#323330"/>
</svg>
