<svg width="100" height="100" viewBox="0 0 100 100" fill="none" xmlns="http://www.w3.org/2000/svg">
<rect width="100" height="100" fill="#F4F2ED"/>
<path d="M76.5625 0H23.4375C10.4933 0 0 10.4933 0 23.4375V76.5625C0 89.5067 10.4933 100 23.4375 100H76.5625C89.5067 100 100 89.5067 100 76.5625V23.4375C100 10.4933 89.5067 0 76.5625 0Z" fill="#F4F2ED"/>
<path fill-rule="evenodd" clip-rule="evenodd" d="M84.3148 30.5914C84.3401 30.6867 84.3529 30.7839 84.3531 30.8832V46.1953C84.3531 46.3918 84.302 46.5847 84.2051 46.7546C84.1084 46.9242 83.9687 47.0653 83.8 47.1636L71.1258 54.5628V69.2289C71.1264 69.4243 71.076 69.6165 70.9795 69.7865C70.8829 69.9564 70.7436 70.0981 70.5754 70.1976L44.1191 85.641C44.0586 85.6757 43.9926 85.698 43.9266 85.7218C43.9016 85.7304 43.8785 85.7457 43.8523 85.7527C43.6674 85.8021 43.4728 85.8021 43.2879 85.7527C43.2578 85.7441 43.2301 85.7273 43.2012 85.7164C43.1406 85.6941 43.0773 85.6746 43.0195 85.641L16.5688 70.1976C16.4003 70.0991 16.2608 69.9581 16.1641 69.7886C16.0669 69.6181 16.0158 69.4252 16.0156 69.2289V23.2925C16.0161 23.1918 16.029 23.0941 16.0543 22.9996C16.0621 22.9671 16.0816 22.9378 16.0926 22.9058C16.1133 22.8472 16.1324 22.7875 16.1629 22.7328C16.1836 22.6964 16.2137 22.6671 16.2387 22.6339C16.2699 22.589 16.2992 22.5429 16.3363 22.5039C16.3676 22.4718 16.4094 22.448 16.4449 22.4203C16.4848 22.3867 16.5207 22.3503 16.566 22.3238H16.5676L29.793 14.6023C29.9601 14.5049 30.1501 14.4536 30.3436 14.4536C30.537 14.4536 30.727 14.5049 30.8941 14.6023L44.1203 22.3238H44.123C44.1668 22.3519 44.2043 22.3867 44.2441 22.4187C44.2797 22.4468 44.3195 22.4718 44.3512 22.5027C44.3898 22.5429 44.4176 22.589 44.4504 22.6339C44.4738 22.6671 44.5055 22.6964 44.5246 22.7328C44.5563 22.7886 44.5742 22.8472 44.5965 22.9058C44.6074 22.9378 44.6266 22.9671 44.6348 23.0007C44.66 23.0963 44.6729 23.1936 44.6734 23.2925V51.9839L55.6945 45.5492V30.8812C55.6945 30.7836 55.7082 30.6847 55.7332 30.5914C55.743 30.5578 55.7605 30.5285 55.7719 30.4964C55.7938 30.4378 55.8129 30.3777 55.8434 30.3234C55.8641 30.2871 55.8941 30.2578 55.9176 30.2242C55.9508 30.1796 55.9781 30.1335 56.0168 30.0945C56.0484 30.0625 56.0883 30.0386 56.1242 30.0105C56.1652 29.9773 56.2012 29.941 56.2453 29.9144H56.2469L69.4742 22.1925C69.6412 22.0948 69.8312 22.0433 70.0246 22.0433C70.2181 22.0433 70.408 22.0948 70.575 22.1925L83.8012 29.9144C83.848 29.9425 83.8836 29.9769 83.925 30.0093C83.9594 30.0371 83.9992 30.0625 84.0309 30.0929C84.0695 30.1336 84.0969 30.1796 84.1301 30.2242C84.1547 30.2578 84.1852 30.2867 84.2043 30.3234C84.2359 30.3781 84.2539 30.4378 84.2758 30.4964C84.2883 30.5285 84.3066 30.5578 84.3148 30.5914ZM82.148 45.5492V32.816L77.5195 35.5175L71.1254 39.2507V51.9839L82.1492 45.5492H82.148ZM68.9219 68.5828V55.8414L62.6324 59.4839L44.6719 69.8781V82.7394L68.9219 68.5828ZM18.2203 25.2253V68.5828L42.4676 82.7382V69.8793L29.8004 62.6097L29.7965 62.607L29.7906 62.6043C29.748 62.5793 29.7125 62.5429 29.6723 62.5121C29.6379 62.4843 29.598 62.4621 29.568 62.4312L29.5652 62.4273C29.5293 62.3921 29.5043 62.3492 29.4742 62.3097C29.4469 62.2722 29.4137 62.2402 29.3918 62.2011L29.3902 62.1968C29.3652 62.155 29.35 62.1046 29.3324 62.0574C29.3145 62.0156 29.291 61.9765 29.2801 61.9316V61.93C29.2664 61.8773 29.2637 61.8214 29.2578 61.7668C29.2523 61.725 29.2414 61.6832 29.2414 61.6414V31.6605L22.8488 27.9257L18.2203 25.2265V25.2253ZM30.3453 16.8601L19.3258 23.2929L30.3426 29.725L41.3609 23.2914L30.3426 16.8605L30.3453 16.8601ZM36.0762 57.0023L42.4691 53.2707V25.2253L37.8402 27.9273L31.4465 31.6601V59.7058L36.0762 57.0023ZM70.025 24.4507L59.0062 30.8832L70.025 37.3152L81.0418 30.8816L70.025 24.4507ZM68.9223 39.2507L62.5281 35.5175L57.9 32.816V45.5492L64.2926 49.2808L68.9223 51.9839V39.2507ZM43.5688 67.9453L59.7301 58.589L67.809 53.914L56.7988 47.4859L44.1219 54.8867L32.568 61.6316L43.5688 67.9453Z" fill="#FF2D20"/>
</svg>
