<svg width="100" height="100" viewBox="0 0 100 100" fill="none" xmlns="http://www.w3.org/2000/svg">
<rect width="100" height="100" fill="#BDBDBD"/>
<path d="M0 0H100V100H0V0Z" fill="#F4F2ED"/>
<path d="M84.7002 26.0012C83.5829 26.0371 83.9361 26.359 81.5223 26.9528C79.085 27.5528 76.1073 27.3689 73.4826 28.4696C65.6473 31.7559 64.0748 42.9873 56.9516 47.0105C51.627 50.0182 46.2553 50.2579 41.4256 51.7713C38.2517 52.7666 34.7796 54.8077 31.9038 57.2856C29.6718 59.2102 29.6137 60.902 27.2814 63.3153C24.7866 65.8968 17.3666 63.3591 14.0038 67.31C15.0872 68.4053 15.5621 68.7122 17.697 68.4281C17.2548 69.2656 14.6495 69.9715 15.1595 71.204C15.6959 72.5008 21.9952 73.3798 27.7211 69.9226C30.3876 68.3127 32.5117 65.9923 36.6649 65.4383C42.0392 64.722 48.23 65.8977 54.452 66.795C53.5292 69.5457 51.6773 71.3748 50.1935 73.5656C49.7341 74.0605 51.1163 74.1159 52.6932 73.8168C55.53 73.1155 57.5742 72.5505 59.7153 71.3045C62.3452 69.7733 62.7438 65.848 65.9708 64.9987C67.7689 67.7621 72.6589 68.4152 75.6934 66.2043C73.0308 65.4507 72.295 59.7833 73.1937 57.2859C74.045 54.9218 74.8861 51.1402 75.7436 48.0154C76.6641 44.6594 77.0038 40.4295 78.1177 38.7198C79.794 36.1479 81.646 35.2647 83.2537 33.8142C84.8614 32.3638 86.3333 30.9523 86.285 27.6335C86.2692 26.5648 85.7166 25.9688 84.7002 26.0012Z" fill="#002B64"/>
<path d="M82.3065 27.9675C82.5744 28.8801 82.9932 29.2991 84.8039 29.4665C84.5393 31.7621 83.0081 33.018 81.2911 34.2225C79.78 35.2822 78.1248 36.3026 77.0612 37.958C75.9713 39.6536 75.2795 45.457 73.5899 51.1882C72.1293 56.1404 69.9239 61.0367 66.0723 63.1823C65.6699 62.1695 66.1237 60.3 65.3232 59.6856C64.8054 61.1626 64.2201 62.5719 63.5342 63.8814C61.2743 68.2014 57.9281 71.4355 52.3361 72.4232C54.9894 68.8328 57.5263 65.1252 57.5814 58.9371C55.7142 59.3409 55.7537 63.7518 53.8351 64.9309C52.6052 65.0648 51.3589 65.0639 50.1052 64.9885C44.9551 64.6799 39.6717 63.132 34.854 64.6779C31.5736 65.7308 28.8907 68.2144 26.1129 69.4192C22.848 70.8352 20.3755 71.4174 16.3101 70.8352C15.7937 70.1398 19.2856 69.2427 19.0766 67.7327C17.4856 67.5568 16.5617 67.9422 15.1785 67.314C15.3312 67.0325 15.5557 66.7981 15.8383 66.603C18.3733 64.8482 25.5739 66.1885 27.5006 64.2962C28.6902 63.1292 29.4706 61.9075 30.2787 60.7202C31.0622 59.5679 31.872 58.4478 33.1062 57.4381C33.5824 57.0503 34.0751 56.6831 34.5829 56.3375C36.6859 54.8984 39.2875 53.593 41.8478 52.6932C45.3352 51.4672 48.8694 51.3661 52.5868 49.9459C54.8832 49.068 57.3806 47.9841 59.4161 46.4673C59.8956 46.1119 60.3511 45.7253 60.7796 45.3099C66.5921 39.6437 67.7444 29.6484 76.813 28.7169C77.9097 28.6045 78.8073 28.6407 79.6247 28.6161C80.5663 28.5879 81.4001 28.4786 82.3065 27.9675ZM71.2512 59.9581C71.3594 61.6901 72.3651 65.1269 73.2528 65.9621C71.5141 66.3848 68.5192 65.6862 67.7509 64.46C68.1456 62.6893 70.2 61.0709 71.2512 59.9581Z" fill="#C49A6C"/>
<path d="M82.9597 29.9069C82.6102 30.6401 81.941 31.5852 81.941 33.4515C81.9382 33.772 81.6976 33.9914 81.6937 33.4975C81.7117 31.6735 82.1945 30.8849 82.7073 29.8487C82.9456 29.424 83.0893 29.5991 82.9597 29.9069ZM82.6076 29.6307C82.1954 30.3304 81.2026 31.6061 81.0383 33.4654C81.0081 33.7844 80.7489 33.9815 80.7881 33.4888C80.9672 31.6738 81.7606 30.5379 82.3628 29.5503C82.6359 29.1487 82.7643 29.3357 82.6076 29.6307ZM82.2869 29.2648C81.817 29.9269 80.2889 31.4592 79.9693 33.2985C79.9117 33.613 79.637 33.7887 79.718 33.301C80.0484 31.507 81.3658 30.0969 82.0489 29.1646C82.3549 28.7862 82.4667 28.9839 82.2869 29.2648ZM82.0006 28.8565L81.8458 29.0211C81.1625 29.7535 79.5752 31.5403 79.0463 33.1759C78.9447 33.4795 78.6479 33.6147 78.7967 33.1429C79.3761 31.4132 80.9717 29.5503 81.7789 28.7232C82.1355 28.3923 82.2183 28.6035 82.0006 28.8565ZM73.7982 32.5596C74.1523 31.0388 75.3351 30.3459 77.3768 30.5148C77.8695 32.7849 75.1123 33.7006 73.7982 32.5596Z" fill="#002B64"/>
</svg>
