<svg width="100" height="100" viewBox="0 0 100 100" fill="none" xmlns="http://www.w3.org/2000/svg">
<rect width="100" height="100" fill="#BDBDBD"/>
<path d="M0 0H100V100H0V0Z" fill="#F4F2ED"/>
<path d="M79.4412 67.9585C75.6823 67.8555 72.8123 68.207 70.3569 69.2409C69.6599 69.5358 68.5484 69.5422 68.4346 70.416C68.8179 70.8182 68.8767 71.4182 69.1823 71.913C69.7677 72.8585 70.7574 74.1302 71.6399 74.7981C72.6043 75.5247 73.5983 76.3037 74.6322 76.9333C76.4726 78.0556 78.5259 78.696 80.2945 79.8184C81.3392 80.4814 82.3748 81.3153 83.3941 82.063C83.8976 82.4317 84.2367 83.0064 84.889 83.2382V83.1331C84.5456 82.6953 84.4572 82.0927 84.1413 81.6361L82.7516 80.2464C81.3931 78.4438 79.6687 76.8605 77.837 75.5463C76.3756 74.4957 73.1034 73.0785 72.4948 71.3793L72.3876 71.2721C73.4236 71.154 74.6365 70.7794 75.5945 70.5222C77.2009 70.0926 78.6375 70.2042 80.2945 69.7746L82.5392 69.1347V68.7072C81.701 67.8479 81.1031 66.7089 80.1894 65.93C77.7954 63.8918 75.1842 61.8573 72.4954 60.1604C71.0043 59.2192 69.1618 58.6063 67.5807 57.8084C67.0482 57.5411 66.115 57.3998 65.7636 56.9535C64.934 55.8964 64.4811 54.5552 63.8413 53.3213C62.5001 50.7376 61.1837 47.9183 59.994 45.1998C59.1832 43.347 58.655 41.5191 57.6442 39.8577C52.7926 31.8812 47.5707 27.0657 39.4805 22.3338C37.7582 21.3274 35.686 20.9296 33.4958 20.4094L29.9687 20.1964C29.2507 19.8973 28.5052 19.0191 27.8314 18.5917C25.1517 16.8974 18.2765 13.2145 16.2906 18.0574C15.0378 21.1129 18.1649 24.0944 19.2829 25.6442C20.0683 26.7288 21.0726 27.9476 21.6327 29.1691C22.0036 29.9734 22.0666 30.7777 22.3825 31.6267C23.1577 33.7199 23.8353 35.998 24.8401 37.9311C25.3474 38.91 25.9074 39.9401 26.55 40.8161C26.9419 41.353 27.6173 41.5913 27.7252 42.4188C27.0637 43.3432 27.026 44.7772 26.6557 45.9458C24.9856 51.2125 25.6174 57.7567 28.0454 61.6525C28.7909 62.8508 30.5472 65.4152 32.96 64.4319C35.072 63.5705 34.6004 60.907 35.2047 58.555C35.3416 58.0225 35.2575 57.6306 35.5249 57.2726V57.3799L37.4493 61.225C38.873 63.5182 41.3974 65.9143 43.5391 67.5315C44.649 68.3698 45.5228 69.8182 46.9589 70.3088V70.2015H46.8516C46.5735 69.7675 46.1379 69.5886 45.7843 69.2414C44.9482 68.4204 44.0178 67.4011 43.3267 66.462C41.3791 63.8195 39.6584 60.9258 38.0919 57.9152C37.342 56.477 36.6914 54.8916 36.0596 53.428C35.8154 52.8636 35.8197 52.0087 35.3119 51.7181C34.6214 52.7898 33.602 53.6577 33.0673 54.9228C32.2145 56.9465 32.1029 59.4165 31.787 61.9749C31.5994 62.0422 31.6819 61.9959 31.5725 62.0821C30.0836 61.722 29.5617 60.1911 29.0076 58.8753C27.6093 55.5525 27.3484 50.2017 28.5801 46.3739C28.8982 45.3841 30.3385 42.2678 29.7553 41.3519C29.4771 40.4404 28.5591 39.9116 28.0454 39.2146C27.4093 38.3531 26.7759 37.2184 26.3355 36.2222C25.19 33.632 24.6574 30.7222 23.4504 28.1029C22.8736 26.8501 21.9006 25.5822 21.1006 24.4707C20.2139 23.2368 19.2225 22.3268 18.5358 20.8363C18.2916 20.3059 17.9611 19.4569 18.3212 18.914C18.4371 18.5453 18.5994 18.3917 18.9632 18.272C19.5821 17.7938 21.3092 18.4321 21.9534 18.6995C23.6676 19.411 25.0972 20.0892 26.55 21.0514C27.2449 21.5123 27.9505 22.4055 28.7925 22.654H29.7547C31.2582 22.9996 32.9427 22.7591 34.3492 23.1866C36.8337 23.9424 39.0595 25.1175 41.081 26.3935C47.2381 30.2828 52.2751 35.8163 55.7198 42.422C56.2734 43.4856 56.5138 44.4985 57.0022 45.6267C57.9854 47.901 59.2258 50.2406 60.2048 52.4663C61.1837 54.6835 62.1357 56.9244 63.5189 58.7707C64.2456 59.7415 67.0503 60.2617 68.3263 60.8008C69.2211 61.1776 70.6868 61.5716 71.5332 62.0832C73.1503 63.0584 74.7169 64.2206 76.2354 65.2879C76.9912 65.8227 79.3242 66.9957 79.4401 67.9601L79.4412 67.9585ZM31.6776 27.2485C30.8943 27.2339 30.3407 27.3326 29.7553 27.4614V27.5687H29.8604C30.235 28.3352 30.8943 28.8301 31.3574 29.491L32.4247 31.7356L32.532 31.6305C33.1934 31.1631 33.4964 30.4176 33.4921 29.2786C33.2268 28.9983 33.1891 28.6511 32.9573 28.3163C32.6543 27.8722 32.0625 27.6215 31.677 27.249L31.6776 27.2485Z" fill="#00618A"/>
</svg>
