<svg width="100" height="100" viewBox="0 0 100 100" fill="none" xmlns="http://www.w3.org/2000/svg">
<rect width="100" height="100" fill="#F4F2ED"/>
<path d="M76.5625 0H23.4375C10.4933 0 0 10.4933 0 23.4375V76.5625C0 89.5067 10.4933 100 23.4375 100H76.5625C89.5067 100 100 89.5067 100 76.5625V23.4375C100 10.4933 89.5067 0 76.5625 0Z" fill="#F4F2ED"/>
<path d="M81.586 39.043C81.4403 35.7629 81.8774 32.8555 80.4208 30.3949C76.9258 24.2816 68.1876 20.7031 50.711 20.7031C33.2344 20.7031 24.0594 24.2816 20.5641 30.4695C19.1805 33.0047 19.3258 35.8375 19.1075 39.118C18.9618 41.727 17.7969 44.4855 18.3067 47.4676C18.8891 51.3445 19.1075 55.2211 19.6903 58.8C20.127 61.7074 24.0594 64.1676 24.4235 66.9262C25.443 74.5305 33.1618 78.0344 50.6379 78.0344V78.6309H50.2012H50.711V78.0344C68.1876 78.0344 75.6149 74.5305 76.5614 66.9262C76.9258 64.093 80.5665 61.7074 81.0036 58.8C81.586 55.2211 81.8044 51.3445 82.3872 47.4676C82.8969 44.4855 81.7317 41.6523 81.586 39.043Z" fill="#EFCCA3"/>
<path d="M50.4195 41.7273C53.5508 41.8015 55.7351 43.8148 57.7742 45.6785C60.1773 47.8406 64.2551 49.3316 65.9301 51.1953C67.6047 53.0593 69.7894 54.923 70.5902 57.8304C71.3914 60.7382 71.6097 64.466 71.6097 65.4351C71.6097 66.4043 72.1195 66.1804 73.5758 65.4351C76.9984 63.7203 80.7847 59.098 80.7847 59.098C80.348 62.0054 76.6343 64.6148 76.2703 67.3734C75.3965 74.9777 68.1871 78.6308 50.3468 78.6308H50.2738H50.7109" fill="#CCAC8D"/>
<path d="M61.925 35.9122C62.5805 38.2231 64.9106 46.0512 60.3958 43.4419C60.3958 43.4419 62.2891 44.5602 63.4543 48.8098C64.6922 53.0595 67.6778 53.5813 67.6778 53.5813C67.6778 53.5813 72.5567 54.5505 76.1973 51.3446C79.2559 48.6606 79.7657 43.8891 78.4547 40.236C77.1442 36.6579 74.8141 35.5395 71.3914 34.7938C67.9692 33.9735 61.1239 33.3028 61.925 35.9122Z" fill="#CCAC8D"/>
<path d="M68.9156 43.2183C69.8406 43.2183 70.5902 42.4503 70.5902 41.5034C70.5902 40.5562 69.8406 39.7886 68.9156 39.7886C67.9906 39.7886 67.2406 40.5562 67.2406 41.5034C67.2406 42.4507 67.9906 43.2183 68.9156 43.2183Z" fill="white"/>
<path d="M60.8328 44.1128C60.8328 44.1128 66.5852 48.1386 69.7164 52.0901C72.8477 56.0413 72.775 56.787 72.775 56.787L70.5176 57.8308C70.5176 57.8308 67.3137 51.6425 63.3813 49.3315C59.3762 47.0202 58.9395 45.0819 58.9395 45.0819L60.8328 44.1128Z" fill="#EFCCA3"/>
<path d="M50.6379 41.7273C47.5067 41.8015 45.1766 43.8148 43.0649 45.6785C40.6618 47.8406 36.4383 49.3316 34.7637 51.1953C33.0887 53.0593 30.8313 54.923 30.0305 57.8304C29.2297 60.7378 28.9379 64.466 28.9379 65.4351C28.9379 66.4043 29.0836 66.4789 26.9719 65.4351C23.5497 63.7949 19.7629 59.098 19.7629 59.098C20.1997 62.0054 23.9137 64.6148 24.2778 67.3734C25.2973 74.9777 32.5063 78.6308 50.3469 78.6308H50.711" fill="#CCAC8D"/>
<path d="M67.532 54.3265C64.0367 49.928 58.4296 45.8276 50.6379 45.8276H50.5652C42.7734 45.8276 37.1668 49.928 33.6711 54.3265C30.0304 58.8741 30.3214 60.6636 30.3214 64.9878C30.3214 80.6437 35.7101 76.1706 39.2781 78.1089C42.9191 79.9729 46.7058 79.3765 50.5652 79.3765H50.6379C54.5703 79.3765 58.2839 79.8983 61.925 78.0347C65.4929 76.1706 70.8816 80.7929 70.8816 65.1366C70.9543 60.8128 71.173 58.8741 67.532 54.3265Z" fill="#56332B"/>
<path d="M50.2738 49.7043C50.2738 49.7043 49.764 56.936 48.7449 58.3528L50.6378 57.9051L50.2738 49.7043Z" fill="#442823"/>
<path d="M50.7836 49.7043C50.7836 49.7043 51.2934 56.936 52.3129 58.3528L50.4196 57.9051L50.7836 49.7043Z" fill="#442823"/>
<path d="M44.6668 47.9896C43.9387 46.2751 46.5602 43.5165 50.711 43.4419C54.8617 43.4419 57.4828 46.2005 56.7547 47.9896C56.0266 49.779 53.4051 50.3009 50.711 50.3755C48.0895 50.3009 45.3949 49.779 44.6668 47.9896Z" fill="#56332B"/>
<path d="M50.8562 59.6945C52.0945 59.6945 54.2789 60.589 56.2449 62.0054C54.3516 59.8433 52.0945 58.3523 50.8562 58.3523C49.5457 58.3523 46.7785 59.9925 44.8125 62.3785C46.8516 60.7382 49.473 59.6945 50.8562 59.6945Z" fill="#7F4A41"/>
<path d="M50.3469 72.8901C47.5797 72.8901 44.8852 71.9956 42.4094 71.3245C41.8996 71.1757 41.3899 71.5483 40.8805 71.3991C36.2926 69.9081 32.5789 67.3733 30.3219 64.1675V64.9132C30.3219 80.5694 35.7102 76.1706 39.2781 78.0347C42.9192 79.8983 46.7059 79.3019 50.5653 79.3019H50.6379C54.5703 79.3019 58.284 79.8237 61.925 77.9601C65.493 76.096 70.8817 80.644 70.8817 64.9878C70.8817 64.3913 70.8817 63.7948 70.9543 63.2729C68.8426 66.7769 64.9832 69.5354 60.1774 71.1757C59.7403 71.3245 58.7207 70.9519 58.284 71.0265C55.6625 71.921 53.3324 72.8901 50.3469 72.8901Z" fill="#442823"/>
<path d="M43.4289 64.4661C43.4289 64.4661 41.6086 70.0575 42.8465 72.5176L41.1715 71.7723C41.1715 71.7723 42.4094 66.1063 43.4289 64.4661ZM57.8469 64.4661C57.8469 64.4661 59.6676 70.0575 58.4297 72.5176L60.1043 71.7723C60.1043 71.7723 58.7938 66.1063 57.8469 64.4661Z" fill="#442823"/>
<path d="M38.7687 35.9122C38.1133 38.2231 35.7832 46.0512 40.2976 43.4419C40.2976 43.4419 38.4043 44.5602 37.239 48.8098C36.0738 53.0595 33.016 53.5813 33.016 53.5813C33.016 53.5813 28.1371 54.5505 24.4965 51.3446C21.4379 48.6606 20.9281 43.8891 22.2387 40.236C23.5496 36.5829 25.8797 35.5395 29.3019 34.7938C32.7246 33.9735 39.4969 33.3028 38.7687 35.9122Z" fill="#CCAC8D"/>
<path d="M52.2273 48.0302C52.539 47.9481 52.6695 47.3966 52.5187 46.7985C52.3679 46.2005 51.9933 45.7825 51.682 45.8645C51.3703 45.9469 51.2398 46.4985 51.3906 47.0966C51.5414 47.6946 51.916 48.1126 52.2273 48.0302ZM48.4847 48.0192C48.7917 48.1169 49.1859 47.7177 49.3648 47.1278C49.5433 46.538 49.4394 45.9805 49.132 45.8829C48.8246 45.7852 48.4308 46.1844 48.2519 46.7743C48.073 47.3641 48.1773 47.9216 48.4847 48.0192Z" fill="#331712"/>
<path d="M32.1422 43.2183C33.0672 43.2183 33.8168 42.4503 33.8168 41.5034C33.8168 40.5562 33.0668 39.7886 32.1422 39.7886C31.2176 39.7886 30.4672 40.5562 30.4672 41.5034C30.4672 42.4507 31.2172 43.2183 32.1422 43.2183Z" fill="white"/>
<path d="M52.5313 44.4855C52.5313 44.4109 50.8567 45.2312 50.4196 45.3058C49.9829 45.2312 48.3079 44.4109 48.3079 44.4855H52.5313Z" fill="#7F4A41"/>
<path d="M39.7879 44.1128C39.7879 44.1128 34.0356 48.1386 30.9043 52.0901C27.7731 56.0413 27.8457 56.787 27.8457 56.787L30.1035 57.8308C30.1035 57.8308 33.3071 51.6425 37.2395 49.3315C41.1715 47.0202 41.6813 45.0819 41.6813 45.0819L39.7879 44.1128Z" fill="#EFCCA3"/>
<path d="M27.1903 32.1843C27.1903 32.1843 25.2242 37.7011 20.8551 40.0125C20.8551 40.0125 27.7 39.1921 27.1903 32.1843ZM73.1391 32.1843C73.1391 32.1843 75.1051 37.7011 79.4742 40.0125C79.4742 40.0125 72.6293 39.1921 73.1391 32.1843ZM60.6871 42.4726C60.6871 42.4726 56.3906 37.8503 50.6379 37.7011H50.7836C44.9582 37.8503 40.7348 42.4726 40.7348 42.4726C45.759 38.8941 50.0555 38.9687 50.7836 38.9687C50.711 38.9687 55.6625 38.8941 60.6871 42.4726ZM55.6625 32.7808C55.6625 32.7808 53.4782 29.6496 50.5653 29.575H50.711C48.5262 29.6492 45.6864 32.7808 45.6864 32.7808C48.1621 30.3207 50.711 30.3949 50.711 30.3949C50.711 30.3949 53.1137 30.3207 55.6625 32.7808ZM30.4672 55.6683C30.4672 55.6683 27.0449 57.3832 24.5688 56.3394H24.4961C22.3114 55.0722 21.2192 51.2699 21.2192 51.2699C21.2192 51.2699 23.4039 57.9796 30.4672 55.6683ZM70.3719 55.6683C70.3719 55.6683 73.7942 57.3832 76.2703 56.3394C79.1828 55.0722 79.6199 51.2699 79.6199 51.2699C79.6199 51.2699 77.4352 57.9796 70.3719 55.6683Z" fill="#CCAC8D"/>
<path d="M34.3997 31.8117C36.2926 31.4386 39.4239 31.364 41.8997 32.1843C45.0309 33.3027 42.4825 37.4031 43.1376 37.6265C43.7926 37.85 44.6668 34.7937 50.4922 35.0917C56.3907 35.3902 57.0461 38.0742 57.8469 37.6269C58.6481 37.1792 57.0461 30.1714 65.8571 31.8117C65.8571 31.8117 56.609 29.2765 57.0461 36.1359C57.0461 36.1359 51.7301 31.9605 44.3028 35.6882C44.3754 35.6882 46.2688 29.2769 34.3993 31.8117M66.6583 31.8117C66.804 31.8117 66.8766 31.8859 66.9497 31.8859C67.0227 31.8859 66.8766 31.8117 66.6583 31.8117ZM31.8508 22.6414C31.8508 22.6414 23.9864 32.7812 22.8215 36.6574C21.6563 40.6089 20.7825 56.7867 19.7629 59.098L16.1223 43.1437L22.8215 26.5183L31.8508 22.6414ZM68.8426 22.6414C68.8426 22.6414 76.7071 32.7808 77.8723 36.6574C79.0376 40.6089 79.9114 56.7867 80.9305 59.098L84.5715 43.1437L77.8723 26.5183L68.8426 22.6414Z" fill="#CCAC8D"/>
<path d="M68.4785 22.6414C68.4785 22.6414 76.9253 29.873 79.4011 38.2234C81.8773 46.573 80.8578 56.7121 82.7511 57.9797C85.4453 59.7691 88.5035 49.1078 89.523 47.9894C91.125 46.2004 96.441 41.6527 96.805 40.8324C97.1691 40.0121 86.0277 27.5621 81.1488 25.1019C75.2507 22.2687 67.9687 22.0449 68.4785 22.6414Z" fill="#56332B"/>
<path d="M75.6875 27.1147C75.6875 27.1147 85.6637 40.1612 85.518 56.414L89.523 48.064C89.4504 48.064 85.9551 37.403 75.6875 27.1147Z" fill="#442823"/>
<path d="M31.8508 22.6414C31.8508 22.6414 23.4039 29.873 20.9281 38.2234C18.4519 46.573 19.4715 56.7121 17.5785 57.9797C14.884 59.7691 11.8258 49.1078 10.8062 47.9894C9.20429 46.2004 3.88828 41.6527 3.52421 40.8324C3.16015 40.0121 14.3016 27.5621 19.1805 25.1019C25.0789 22.2687 32.3605 22.0449 31.8508 22.6414Z" fill="#56332B"/>
<path d="M24.6418 27.1147C24.6418 27.1147 14.6656 40.1612 14.8113 56.414L10.8789 48.064C10.8789 48.064 14.3742 37.403 24.6418 27.1147Z" fill="#442823"/>
<path d="M19.2532 56.7124C19.2532 56.7124 19.9813 60.7382 21.1465 62.0054C22.3118 63.2726 21.5106 61.0363 21.5106 61.0363C21.5106 61.0363 20.2723 60.3656 20.4911 55.221C20.7098 50.0765 19.2532 56.7124 19.2532 56.7124ZM81.3676 56.7124C81.3676 56.7124 80.6395 60.7382 79.4743 62.0054C78.309 63.2726 79.1102 61.0363 79.1102 61.0363C79.1102 61.0363 80.3481 60.3656 80.1297 55.221C79.9114 50.0765 81.3676 56.7124 81.3676 56.7124Z" fill="#CCAC8D"/>
<path d="M43.0649 54.2519C43.3868 54.2519 43.6473 53.9851 43.6473 53.6554C43.6473 53.3257 43.3868 53.0593 43.0649 53.0593C42.743 53.0593 42.4825 53.3261 42.4825 53.6554C42.4825 53.9851 42.743 54.2519 43.0649 54.2519ZM39.7153 57.8304C40.0368 57.8304 40.2977 57.5636 40.2977 57.2343C40.2977 56.9046 40.0368 56.6378 39.7153 56.6378C39.3938 56.6378 39.1325 56.9046 39.1325 57.2343C39.1325 57.564 39.3934 57.8304 39.7153 57.8304ZM38.6231 54.2519C38.9446 54.2519 39.2055 53.9851 39.2055 53.6554C39.2055 53.3257 38.9446 53.0593 38.6231 53.0593C38.3016 53.0593 38.0403 53.3261 38.0403 53.6554C38.0403 53.9851 38.3012 54.2519 38.6231 54.2519ZM57.2645 54.2519C57.5864 54.2519 57.8473 53.9851 57.8473 53.6554C57.8473 53.3257 57.5864 53.0593 57.2645 53.0593C56.943 53.0593 56.6821 53.3261 56.6821 53.6554C56.6821 53.9851 56.943 54.2519 57.2645 54.2519ZM60.6141 57.8304C60.936 57.8304 61.1969 57.5636 61.1969 57.2343C61.1969 56.9046 60.936 56.6378 60.6141 56.6378C60.2926 56.6378 60.0317 56.9046 60.0317 57.2343C60.0317 57.564 60.2926 57.8304 60.6141 57.8304ZM61.7067 54.2519C62.0286 54.2519 62.2891 53.9851 62.2891 53.6554C62.2891 53.3257 62.0286 53.0593 61.7067 53.0593C61.3848 53.0593 61.1243 53.3261 61.1243 53.6554C61.1243 53.9851 61.3848 54.2519 61.7067 54.2519Z" fill="#442823"/>
<path d="M30.8488 49.077C34.4289 49.077 37.3316 46.1614 37.3316 42.5645C37.3316 38.9676 34.4292 36.052 30.8488 36.052C27.2687 36.052 24.366 38.9676 24.366 42.5645C24.366 46.1614 27.2683 49.077 30.8488 49.077Z" fill="black" stroke="#242938" stroke-opacity="0.8" stroke-width="0.06"/>
<path d="M33.6261 42.3261C34.5722 42.3261 35.3394 41.5823 35.3394 40.6647C35.3394 39.7472 34.5722 39.0034 33.6261 39.0034C32.68 39.0034 31.9128 39.7472 31.9128 40.6647C31.9128 41.5823 32.68 42.3261 33.6261 42.3261Z" fill="white"/>
<path d="M70.0602 49.1917C73.6403 49.1917 76.5426 46.2761 76.5426 42.6792C76.5426 39.0824 73.6403 36.1667 70.0602 36.1667C66.4797 36.1667 63.5774 39.0824 63.5774 42.6792C63.5774 46.2761 66.4797 49.1917 70.0602 49.1917Z" fill="black" stroke="#242938" stroke-opacity="0.8" stroke-width="0.06"/>
<path d="M66.4301 41.2735C67.0496 41.2735 67.5516 40.7836 67.5516 40.1793C67.5516 39.575 67.0496 39.0852 66.4301 39.0852C65.8105 39.0852 65.3086 39.575 65.3086 40.1793C65.3086 40.7836 65.8105 41.2735 66.4301 41.2735Z" fill="white"/>
<path d="M66.6531 42.1929C67.5992 42.1929 68.366 41.4488 68.366 40.5312C68.366 39.6136 67.5992 38.8699 66.6531 38.8699C65.707 38.8699 64.9398 39.614 64.9398 40.5312C64.9398 41.4488 65.707 42.1929 66.6531 42.1929Z" fill="white"/>
</svg>
