<svg width="100" height="100" viewBox="0 0 100 100" fill="none" xmlns="http://www.w3.org/2000/svg">
<rect width="100" height="100" fill="#F4F2ED"/>
<path d="M76.5625 0H23.4375C10.4933 0 0 10.4933 0 23.4375V76.5625C0 89.5067 10.4933 100 23.4375 100H76.5625C89.5067 100 100 89.5067 100 76.5625V23.4375C100 10.4933 89.5067 0 76.5625 0Z" fill="#F4F2ED"/>
<path d="M49.7184 11.3281C29.8855 11.3281 31.1238 19.9289 31.1238 19.9289L31.1461 28.8391H50.0723V31.5148H23.6285C23.6285 31.5148 10.9375 30.075 10.9375 50.0863C10.9375 70.0977 22.0145 69.3887 22.0145 69.3887H28.6254V60.1023C28.6254 60.1023 28.2691 49.0254 39.5258 49.0254H58.2969C58.2969 49.0254 68.8434 49.1957 68.8434 38.8324V21.6977C68.8434 21.6977 70.4445 11.3281 49.7184 11.3281ZM39.2824 17.3199C39.7297 17.3196 40.1726 17.4074 40.5859 17.5784C40.9992 17.7494 41.3747 18.0002 41.691 18.3164C42.0072 18.6327 42.258 19.0082 42.429 19.4215C42.6 19.8348 42.6879 20.2777 42.6875 20.725C42.6878 21.1722 42.5999 21.6151 42.4289 22.0284C42.2579 22.4416 42.0071 22.8171 41.6908 23.1333C41.3746 23.4495 40.9991 23.7003 40.5858 23.8713C40.1726 24.0422 39.7297 24.13 39.2824 24.1297C38.8352 24.13 38.3924 24.0421 37.9791 23.8711C37.5659 23.7002 37.1905 23.4494 36.8743 23.1332C36.558 22.8169 36.3073 22.4415 36.1363 22.0283C35.9653 21.6151 35.8774 21.1722 35.8777 20.725C35.8774 20.2778 35.9652 19.8349 36.1362 19.4216C36.3071 19.0083 36.5579 18.6328 36.8741 18.3166C37.1903 18.0003 37.5658 17.7495 37.979 17.5785C38.3923 17.4075 38.8352 17.3196 39.2824 17.3199Z" fill="url(#paint0_linear_29_1381)"/>
<path d="M50.2816 89.0461C70.1144 89.0461 68.8762 80.4457 68.8762 80.4457L68.8539 71.5352H49.9277V68.8598H76.3715C76.3715 68.8598 89.0625 70.2992 89.0625 50.2875C89.0625 30.2758 77.9855 30.9855 77.9855 30.9855H71.3746V40.2719C71.3746 40.2719 71.7308 51.3488 60.4742 51.3488H41.7031C41.7031 51.3488 31.1562 51.1781 31.1562 61.5414V78.6766C31.1562 78.6766 29.5551 89.0461 50.2816 89.0461ZM60.7176 83.0543C60.2703 83.0546 59.8274 82.9668 59.4142 82.7959C59.0009 82.6249 58.6254 82.3741 58.3092 82.0579C57.9929 81.7417 57.7421 81.3662 57.5711 80.953C57.4 80.5397 57.3122 80.0968 57.3125 79.6496C57.3121 79.2023 57.4 78.7594 57.571 78.3461C57.7419 77.9328 57.9928 77.5573 58.309 77.241C58.6253 76.9248 59.0008 76.674 59.4141 76.503C59.8274 76.332 60.2703 76.2442 60.7176 76.2445C61.1648 76.2442 61.6078 76.332 62.0211 76.503C62.4343 76.674 62.8099 76.9248 63.1261 77.241C63.4424 77.5573 63.6932 77.9328 63.8642 78.3461C64.0352 78.7594 64.123 79.2023 64.1226 79.6496C64.123 80.0968 64.0351 80.5397 63.8641 80.953C63.6931 81.3662 63.4422 81.7417 63.126 82.0579C62.8097 82.3741 62.4342 82.6249 62.021 82.7959C61.6077 82.9668 61.1648 83.0546 60.7176 83.0543Z" fill="url(#paint1_linear_29_1381)"/>
<defs>
<linearGradient id="paint0_linear_29_1381" x1="18.4453" y1="18.3187" x2="57.1613" y2="56.6484" gradientUnits="userSpaceOnUse">
<stop stop-color="#387EB8"/>
<stop offset="1" stop-color="#366994"/>
</linearGradient>
<linearGradient id="paint1_linear_29_1381" x1="42.2094" y1="42.9316" x2="83.7859" y2="82.2351" gradientUnits="userSpaceOnUse">
<stop stop-color="#FFE052"/>
<stop offset="1" stop-color="#FFC331"/>
</linearGradient>
</defs>
</svg>
