<svg width="100" height="100" viewBox="0 0 100 100" fill="none" xmlns="http://www.w3.org/2000/svg">
<rect width="100" height="100" fill="#BDBDBD"/>
<path d="M0 0H100V100H0V0Z" fill="#F4F2ED"/>
<path d="M49.9719 17.123C49.8541 17.1916 49.361 17.8989 48.875 18.6957C47.6563 20.6965 47.6431 20.6975 46.0059 18.975C44.9405 17.8538 44.6831 17.6486 44.3403 17.6511C44.1168 17.6521 43.835 17.7283 43.7131 17.8197C43.5913 17.9111 43.248 18.6383 42.9494 19.4361C42.2659 21.2642 42.2334 21.3226 41.8545 21.3962C41.6209 21.4399 41.1725 21.1896 40.096 20.4167C39.3013 19.8454 38.5218 19.3782 38.3638 19.3782C37.7083 19.3782 37.5234 19.7367 37.2111 21.6126C36.815 23.9978 36.8282 23.9896 34.6781 23.0131C33.8098 22.6191 32.9871 22.2971 32.8485 22.2971C32.7099 22.2971 32.4463 22.4459 32.2645 22.6282C31.9334 22.9593 31.9329 22.9608 32.0233 24.7844L32.1137 26.61L31.7684 26.7948C31.4627 26.9583 31.2519 26.9385 29.8976 26.6181C28.1304 26.2007 27.7567 26.2118 27.3992 26.6943L27.1371 27.0462L27.4885 28.5513C27.6815 29.3791 27.8668 30.1763 27.9019 30.3221C27.9359 30.4678 27.8765 30.7009 27.7699 30.84C27.5931 31.0675 27.4058 31.0889 25.7691 31.0635C23.0005 31.0198 22.8436 31.2575 23.9867 33.7549C24.3513 34.5471 24.6493 35.2682 24.6493 35.3545C24.6493 35.8105 24.2852 35.9761 22.7227 36.2315C21.8483 36.3737 21.0886 36.4905 21.0337 36.4905C20.9794 36.4905 20.8154 36.6098 20.6696 36.7555C20.1938 37.2309 20.3289 37.6777 21.4075 39.2002C22.7511 41.0968 22.7491 41.1045 20.529 41.953C18.0046 42.9189 17.9533 43.1565 19.8754 44.9796C21.6654 46.6777 21.668 46.6528 19.6413 47.9269C18.1057 48.8907 18.0823 48.9141 18.0432 49.4371C17.996 50.0734 18.0072 50.0846 19.8399 51.2043C21.6527 52.3114 21.6527 52.3449 19.8739 54.0278C17.9604 55.8376 18.0193 56.1017 20.5457 57.0548C22.7532 57.8877 22.7562 57.8978 21.41 59.794C20.6473 60.869 20.404 61.3174 20.404 61.649C20.404 62.2701 20.7275 62.4285 22.6587 62.753C24.2868 63.0272 24.6493 63.1882 24.6493 63.6371C24.6493 63.7295 24.3508 64.4557 23.9856 65.2504C22.8502 67.7235 22.9797 67.9291 25.6665 67.9291C28.17 67.9291 28.1035 67.853 27.5642 70.1097C27.1579 71.8109 27.1513 72.1369 27.5195 72.504C27.8008 72.7864 28.332 72.7549 29.9925 72.3573C31.2616 72.0546 31.484 72.0338 31.778 72.1907L32.1132 72.3705L32.0233 74.1955C31.9329 76.0201 31.9334 76.0211 32.2645 76.3527C32.4463 76.5355 32.7134 76.6838 32.8561 76.6838C32.9988 76.6838 33.8225 76.3639 34.6863 75.9709C36.8292 74.9979 36.816 74.9898 37.2116 77.3673C37.5249 79.2518 37.7077 79.6017 38.3765 79.6017C38.5426 79.6017 39.3058 79.1548 40.0726 78.6074C41.4204 77.6461 41.7697 77.4953 42.1288 77.7238C42.2212 77.7822 42.5807 78.5719 42.927 79.4783C43.4364 80.8113 43.6227 81.1592 43.9066 81.2943C44.4459 81.5532 44.78 81.345 46.0486 79.9638C47.5801 78.2951 47.6431 78.3032 48.8933 80.3294C50.2746 82.5668 50.6321 82.5618 52.0479 80.2842C53.2676 78.322 53.2534 78.323 54.9023 80.0455C55.9976 81.1881 56.2307 81.3709 56.5999 81.3709C56.8355 81.3709 57.1174 81.2821 57.2245 81.1739C57.3332 81.0657 57.6917 80.267 58.0208 79.3986C58.3503 78.5302 58.6916 77.7736 58.7799 77.7177C59.1288 77.4963 59.4899 77.6517 60.8356 78.6074C61.6277 79.1701 62.3732 79.6027 62.5504 79.6027C63.2086 79.6027 63.4462 79.1355 63.7194 77.2998C63.953 75.7347 64.0008 75.5844 64.3085 75.4285C64.6111 75.2752 64.7929 75.327 66.2128 75.9719C67.0766 76.3629 67.9002 76.6838 68.0429 76.6838C68.1856 76.6838 68.4573 76.5305 68.6442 76.3426L68.9854 76.0023L68.892 74.2514C68.8021 72.5807 68.8108 72.4903 69.0768 72.2491C69.3511 72.0013 69.3795 72.0023 70.9126 72.3527C72.7691 72.7767 73.1155 72.7879 73.4643 72.439C73.8051 72.0988 73.8015 72.0236 73.3354 70.0574C72.8123 67.8504 72.7422 67.9296 75.2549 67.9296C76.9683 67.9296 77.1592 67.9048 77.3775 67.6641C77.7422 67.2614 77.6553 66.7998 76.9225 65.2372C76.5524 64.4501 76.2522 63.7341 76.2548 63.6452C76.267 63.1811 76.6321 63.0221 78.319 62.7479C79.3514 62.5809 80.1233 62.3874 80.2634 62.2604C80.7322 61.8374 80.56 61.2864 79.49 59.7859C78.1484 57.9054 78.1545 57.8877 80.302 57.096C82.8736 56.1484 82.9472 55.8325 81.0226 54.0034C79.2402 52.3098 79.2392 52.319 81.1917 51.1205C83.552 49.6718 83.5556 49.3452 81.2334 47.9036C79.2361 46.6645 79.2377 46.6818 81.0277 44.9821C82.9472 43.1575 82.8954 42.9189 80.3701 41.953C78.1418 41.1004 78.1347 41.0796 79.489 39.221C80.2954 38.1139 80.4955 37.7468 80.4955 37.3675C80.4955 36.7043 80.1979 36.556 78.2429 36.2401C76.6097 35.9761 76.2502 35.8161 76.2502 35.3514C76.2502 35.2631 76.5488 34.5522 76.9139 33.7706C77.6279 32.2406 77.7284 31.6277 77.3242 31.262C77.1069 31.0655 76.8164 31.0371 75.259 31.063C73.6299 31.0904 73.4217 31.067 73.1957 30.84C72.9489 30.5922 72.952 30.5572 73.3369 28.9484C73.8097 26.9781 73.8117 26.9299 73.4232 26.5648C73.0286 26.1941 72.7824 26.2002 70.9725 26.6262C69.6537 26.937 69.4354 26.9578 69.1358 26.7973L68.7955 26.6145L68.8895 24.7955L68.9839 22.9776L68.6437 22.6373C68.4563 22.4495 68.1912 22.2971 68.0531 22.2971C67.916 22.2971 67.0964 22.6221 66.2336 23.0187C64.7924 23.6819 64.6375 23.7261 64.3258 23.5631C64.015 23.4006 63.9632 23.2396 63.6976 21.6187C63.3914 19.7433 63.2015 19.3782 62.5357 19.3782C62.3778 19.3782 61.5947 19.8479 60.7959 20.4218C59.4838 21.3643 59.3081 21.4536 58.981 21.3394C58.7104 21.2449 58.5529 21.0398 58.361 20.5274C58.2188 20.1506 57.9461 19.4244 57.7547 18.9141C57.3677 17.8842 57.1519 17.6537 56.5725 17.6537C56.249 17.6537 55.9565 17.8863 54.9068 18.976C53.2565 20.6899 53.2509 20.6894 52.0377 18.6993C51.5527 17.904 51.0459 17.1941 50.9114 17.122C50.6082 16.9595 50.2512 16.9595 49.9719 17.123ZM51.475 23.1142C52.9122 24.1369 52.1484 26.5419 50.3863 26.5419C48.676 26.5419 47.8147 24.4817 49.0355 23.3122C49.7251 22.6521 50.7128 22.5713 51.475 23.1142ZM49.6688 29.4654C50.6108 29.8234 50.9972 29.6086 53.1483 27.5357L54.7642 25.9767L55.4482 26.0681C57.5937 26.3525 61.8603 28.2263 64.312 29.961C66.5647 31.5555 69.5588 34.8025 70.8349 37.0348L71.1076 37.5132L69.899 40.2371C69.2338 41.7352 68.6894 43.1179 68.6894 43.3109C68.6894 43.7568 68.9819 44.4621 69.2632 44.6952C69.382 44.7942 70.5109 45.3376 71.7713 45.9028L74.0615 46.9311L74.1519 47.5141C74.2687 48.2732 74.284 50.1379 74.1783 50.6676L74.0956 51.082H72.7879C71.2711 51.082 71.3884 50.9464 71.3061 52.8065C71.2462 54.1552 70.9202 54.9007 70.1788 55.3836C68.9717 56.1712 66.9775 56.0286 66.1315 55.0942C66.002 54.95 65.7497 54.2284 65.5704 53.4895C65.0474 51.3293 64.345 50.1176 62.9333 48.937C62.4875 48.5647 62.1234 48.2169 62.1234 48.1641C62.1234 48.1123 62.6134 47.6994 63.2126 47.2485C65.3952 45.6032 66.6505 43.6877 66.7876 41.791C67.0512 38.1723 64.1683 34.8 59.8804 33.7066C58.8637 33.4477 58.4295 33.4395 45.8525 33.4395C38.7142 33.4395 32.8729 33.3928 32.8729 33.3359C32.8729 33.2024 34.4598 31.6627 35.3941 30.8903C37.9606 28.7687 41.2939 27.0995 44.7465 26.2083L45.9399 25.8985L47.636 27.6185C48.5699 28.5645 49.4844 29.3958 49.6688 29.4654ZM28.3086 40.5321C29.0902 41.044 29.4106 42.3298 28.9485 43.1027C28.235 44.2991 26.4267 44.3494 25.7122 43.1931C24.6732 41.5127 26.6745 39.4612 28.3086 40.5321ZM74.353 40.5982C76.3975 41.8443 74.8131 44.911 72.6244 43.9426C71.1634 43.2962 71.1162 41.2989 72.5457 40.5707C73.1419 40.2661 73.8269 40.2767 74.3535 40.5977M34.3328 48.2306V55.8579H27.5891L27.322 54.6976C26.7959 52.4124 26.5745 50.048 26.707 48.1118L26.7994 46.7513L29.1176 45.7118C30.572 45.0603 31.5074 44.5632 31.6277 44.3788C32.1548 43.5745 32.105 43.0001 31.3647 41.366L31.0193 40.6032H34.3318V48.2306M53.745 40.9343C55.1887 41.3101 55.9514 42.0744 55.9534 43.1459C55.9545 43.933 55.565 44.4255 54.5976 44.8623C53.9131 45.172 53.8044 45.1796 49.4875 45.2218L45.0766 45.2645V40.7348H49.0284C52.1149 40.7348 53.1478 40.7784 53.745 40.9343ZM52.255 51.8797C52.9711 52.0788 53.8171 52.7003 54.2508 53.3463C54.7068 54.0252 54.9734 54.9083 55.6051 57.8333C56.1383 60.3064 56.4821 61.1138 57.4434 62.166C58.6342 63.469 58.3574 63.4182 64.3059 63.4182C67.1548 63.4182 69.4846 63.4639 69.4846 63.5198C69.4846 63.6198 67.5229 65.939 67.4381 65.939C67.4138 65.939 66.389 65.7247 65.1611 65.4622C61.6933 64.7218 61.5683 64.8086 60.7726 68.5253L60.2607 70.913L59.7986 71.1405C59.0277 71.5214 56.5217 72.3045 55.2232 72.5726C53.0762 73.0144 50.7402 73.1627 48.6872 72.9895C45.1868 72.6924 40.552 71.3345 40.3707 70.552C40.3326 70.3859 40.099 69.3114 39.8538 68.1632C39.6075 67.0156 39.3084 65.9268 39.1885 65.744C38.6147 64.8686 38.0114 64.8147 35.3561 65.4018C34.3506 65.6252 33.4731 65.806 33.4061 65.806C33.2801 65.806 31.4139 63.6483 31.4139 63.503C31.4139 63.4573 35.8461 63.4045 41.2634 63.3862L51.1125 63.3527L51.148 59.8539C51.1734 57.3834 51.1389 56.3007 51.0312 56.1723C50.9124 56.028 50.2771 55.9905 47.9788 55.9905H45.0766V51.7452L48.4266 51.7457C50.268 51.7467 51.9915 51.8066 52.255 51.8797ZM37.0786 67.7915C38.6447 68.7462 37.8936 71.2467 36.0411 71.2446C34.1419 71.2446 33.4375 68.7665 35.0559 67.7783C35.5917 67.4518 36.5327 67.4584 37.0786 67.7915ZM65.7598 67.8961C66.5276 68.4588 66.7831 69.6293 66.3077 70.4098C65.0585 72.4583 61.9345 70.8298 62.978 68.6736C63.4909 67.6148 64.8544 67.2324 65.7598 67.8961Z" fill="black"/>
</svg>
