<svg width="100" height="100" viewBox="0 0 100 100" fill="none" xmlns="http://www.w3.org/2000/svg">
<rect width="100" height="100" fill="#BDBDBD"/>
<path d="M0 0H100V100H0V0Z" fill="white"/>
<path d="M78.2432 36.4333C78.2429 35.2417 78.123 34.0531 77.8853 32.8854C77.6474 31.69 77.2432 30.5339 76.6845 29.4507C76.1007 28.4014 75.3749 27.4377 74.5276 26.5869C73.654 25.7319 72.6392 25.0344 71.5279 24.5252C70.4313 23.9724 69.2584 23.5861 68.0479 23.3788C66.8471 23.1477 65.5285 23.1477 64.3278 23.0344H34.707C33.783 23.0495 32.8611 23.1267 31.9475 23.2655C31.0408 23.3721 30.1533 23.6039 29.3103 23.9543C29.0701 24.0675 28.7121 24.1854 28.472 24.2986C27.6746 24.7266 26.9164 25.2239 26.2064 25.7849C25.9662 26.016 25.726 26.1293 25.4859 26.3558C24.6027 27.1749 23.8724 28.1446 23.329 29.2196C22.7355 30.2875 22.3293 31.4492 22.1282 32.6543C21.95 33.8302 21.8306 35.0144 21.7703 36.2022V63.5665C21.7706 64.7581 21.8905 65.9467 22.1282 67.1144C22.3661 68.3098 22.7703 69.4659 23.329 70.5491C23.9128 71.5984 24.6386 72.5621 25.4859 73.4129C26.3595 74.2679 27.3743 74.9654 28.4856 75.4746C29.5822 76.0273 30.7551 76.4137 31.9656 76.621C33.1664 76.8521 34.4849 76.8521 35.6857 76.9654H64.3323C65.5803 76.9647 66.8255 76.8494 68.0524 76.621C69.2629 76.4137 70.4358 76.0273 71.5324 75.4746C72.6202 74.9249 73.6292 74.2315 74.5321 73.4129C75.4153 72.5938 76.1457 71.6241 76.689 70.5491C77.2825 69.4812 77.6887 68.3195 77.8898 67.1144C78.068 65.9384 78.1875 64.7543 78.2478 63.5665V36.4333H78.2432Z" fill="#F05138"/>
<path d="M59.5156 64.7266C54.4814 67.5043 47.5622 67.7898 40.5976 64.9396C35.1675 62.7363 30.5246 58.9523 27.2712 54.0782C28.7832 55.2356 30.435 56.1978 32.1876 56.942C39.3787 60.1591 46.5653 59.9371 51.6267 56.942C44.422 51.6585 38.3048 44.7891 33.7464 39.1795C32.8469 38.2314 32.044 37.1962 31.3494 36.0891C36.8594 40.8968 45.6228 46.9642 48.7403 48.6815C44.2895 44.1205 40.1991 39.2211 36.5059 34.0274C42.6445 39.9928 49.3992 45.2893 56.6564 49.8279C56.9781 50.0001 57.2273 50.1451 57.4267 50.281C57.6392 49.7616 57.8222 49.2306 57.975 48.6906C59.6561 42.8498 57.7348 36.2115 53.5389 30.7151C63.2539 36.3202 69.0312 46.8509 66.6116 55.6687C66.5481 55.9088 66.4801 56.1218 66.4076 56.371L66.4937 56.4707C71.2923 62.1937 69.9737 68.252 69.3711 67.1191C66.7656 62.2345 61.9489 63.7434 59.5156 64.7266Z" fill="#FEFEFE"/>
</svg>
