<svg width="100" height="100" viewBox="0 0 100 100" fill="none" xmlns="http://www.w3.org/2000/svg">
<rect width="100" height="100" fill="#F4F2ED"/>
<path d="M76.5625 0H23.4375C10.4933 0 0 10.4933 0 23.4375V76.5625C0 89.5067 10.4933 100 23.4375 100H76.5625C89.5067 100 100 89.5067 100 76.5625V23.4375C100 10.4933 89.5067 0 76.5625 0Z" fill="#F4F2ED"/>
<path fill-rule="evenodd" clip-rule="evenodd" d="M32.4219 42.9688C34.7656 33.5938 40.625 28.9062 50 28.9062C64.0625 28.9062 65.8203 39.4531 72.8516 41.2109C77.5391 42.3833 81.6406 40.6255 85.1562 35.9375C82.8125 45.3125 76.9531 50 67.5781 50C53.5156 50 51.7578 39.4531 44.7266 37.6953C40.0391 36.5234 35.9375 38.2812 32.4219 42.9688ZM14.8438 64.0625C17.1875 54.6875 23.0469 50 32.4219 50C46.4844 50 48.2422 60.5469 55.2734 62.3047C59.9609 63.4771 64.0625 61.7193 67.5781 57.0312C65.2344 66.4062 59.375 71.0938 50 71.0938C35.9375 71.0938 34.1797 60.5469 27.1484 58.7891C22.4609 57.6167 18.3594 59.3745 14.8438 64.0625Z" fill="url(#paint0_linear_29_1380)"/>
<defs>
<linearGradient id="paint0_linear_29_1380" x1="33.7891" y1="28.9062" x2="63.8672" y2="72.4609" gradientUnits="userSpaceOnUse">
<stop stop-color="#32B1C1"/>
<stop offset="1" stop-color="#14C6B7"/>
</linearGradient>
</defs>
</svg>
