<svg width="100" height="100" viewBox="0 0 100 100" fill="none" xmlns="http://www.w3.org/2000/svg">
<rect width="100" height="100" fill="#F4F2ED"/>
<path d="M76.5625 0H23.4375C10.4933 0 0 10.4933 0 23.4375V76.5625C0 89.5067 10.4933 100 23.4375 100H76.5625C89.5067 100 100 89.5067 100 76.5625V23.4375C100 10.4933 89.5067 0 76.5625 0Z" fill="#F4F2EE"/>
<path d="M71.0938 19.5312H85.1562L50 80.1758L14.8438 19.5312H41.7383L50 33.5938L58.0859 19.5312H71.0938Z" fill="#41B883"/>
<path d="M14.8438 19.5312L50 80.1758L85.1562 19.5312H71.0938L50 55.918L28.7305 19.5312H14.8438Z" fill="#41B883"/>
<path d="M28.7305 19.5312L50 56.0938L71.0937 19.5312H58.0859L50 33.5938L41.7383 19.5312H28.7305Z" fill="#35495E"/>
</svg>
